<svg id="svg" version="1.1" width="400" height="400" viewBox="0 0 400 400" xmlns="http://www.w3.org/2000/svg" xmlns:xlink="http://www.w3.org/1999/xlink" ><g id="svgg"><path id="path0" d="M304.167 98.625 C 297.511 101.989,288.884 115.395,288.406 123.120 C 288.148 127.272,288.668 128.903,291.003 131.283 L 292.971 133.288 292.207 134.727 C 288.686 141.363,286.540 145.518,283.376 151.824 C 279.817 158.917,279.577 159.656,280.833 159.656 C 281.017 159.656,280.963 159.528,280.714 159.370 C 280.399 159.170,280.374 159.014,280.631 158.855 C 281.128 158.548,281.734 158.955,281.454 159.408 C 281.319 159.626,281.386 159.674,281.621 159.528 C 281.835 159.396,281.918 159.138,281.805 158.955 C 281.692 158.772,281.802 158.656,282.050 158.697 C 282.816 158.824,283.634 158.302,283.444 157.808 C 283.345 157.549,283.127 157.422,282.960 157.525 C 282.793 157.628,282.742 157.852,282.848 158.023 C 282.953 158.194,282.805 158.333,282.520 158.333 C 282.234 158.333,282.000 158.183,282.000 158.000 C 282.000 157.817,282.159 157.667,282.353 157.667 C 282.547 157.667,282.599 157.493,282.468 157.282 C 282.326 157.052,282.376 156.987,282.592 157.121 C 282.791 157.244,283.044 157.198,283.154 157.020 C 283.265 156.842,283.574 156.780,283.841 156.882 C 284.113 156.987,284.418 156.833,284.533 156.535 C 284.646 156.241,284.881 156.000,285.055 156.000 C 285.230 156.000,285.288 156.137,285.185 156.304 C 285.081 156.471,285.252 156.571,285.564 156.525 C 285.875 156.479,286.190 156.263,286.263 156.044 C 286.336 155.825,286.269 155.668,286.115 155.696 C 285.467 155.811,285.333 155.639,285.735 155.208 C 285.971 154.956,286.348 154.821,286.574 154.908 C 286.800 154.994,287.164 154.671,287.383 154.190 C 287.603 153.708,287.869 153.448,287.974 153.612 C 288.080 153.776,288.542 154.012,289.000 154.136 L 289.833 154.361 289.073 153.913 C 288.655 153.667,288.416 153.362,288.542 153.236 C 288.669 153.109,288.978 153.177,289.230 153.386 C 289.611 153.702,289.631 153.615,289.345 152.864 C 289.153 152.360,289.138 152.046,289.312 152.153 C 289.482 152.258,289.856 152.009,290.144 151.598 C 290.539 151.033,290.667 150.983,290.667 151.390 C 290.667 151.686,290.442 152.015,290.167 152.121 C 289.892 152.226,289.667 152.490,289.667 152.708 C 289.667 152.956,289.894 152.897,290.277 152.551 C 290.613 152.247,291.002 152.111,291.142 152.249 C 291.282 152.387,291.345 152.200,291.282 151.833 C 291.199 151.351,291.328 151.194,291.750 151.265 C 292.092 151.322,292.333 151.154,292.333 150.858 C 292.333 150.520,292.525 150.424,292.917 150.566 C 293.287 150.700,293.196 150.518,292.667 150.066 C 292.208 149.675,292.012 149.351,292.230 149.344 C 292.449 149.338,292.720 149.483,292.833 149.667 C 293.183 150.232,294.339 150.070,294.115 149.486 C 294.007 149.204,294.049 148.997,294.209 149.026 C 294.892 149.151,295.358 148.976,295.167 148.667 C 295.053 148.483,295.203 148.333,295.500 148.333 C 295.797 148.333,295.947 148.183,295.833 148.000 C 295.720 147.817,295.774 147.667,295.953 147.667 C 296.131 147.667,296.364 147.854,296.469 148.083 C 296.574 148.313,296.586 148.190,296.494 147.811 C 296.383 147.354,296.615 146.851,297.182 146.319 C 297.739 145.795,297.965 145.704,297.829 146.057 C 297.715 146.355,297.781 146.698,297.977 146.819 C 298.197 146.955,298.335 146.681,298.338 146.103 C 298.341 145.588,298.491 144.942,298.671 144.667 C 298.903 144.314,298.936 144.497,298.783 145.289 L 298.568 146.412 299.292 145.792 C 299.690 145.451,299.861 145.120,299.672 145.057 C 299.189 144.896,299.603 144.333,300.206 144.333 C 300.481 144.333,300.613 144.483,300.500 144.667 C 300.165 145.209,300.547 145.047,301.043 144.436 C 301.294 144.126,301.329 143.974,301.121 144.099 C 300.913 144.224,300.554 144.099,300.324 143.822 C 299.982 143.410,299.992 143.351,300.382 143.501 C 301.233 143.827,303.301 143.884,303.110 143.575 C 303.008 143.410,302.642 143.349,302.296 143.440 C 301.950 143.530,301.583 143.468,301.481 143.302 C 301.306 143.020,301.797 142.854,302.454 142.973 C 302.901 143.054,303.666 141.885,303.490 141.389 C 303.401 141.138,303.514 141.005,303.750 141.083 C 303.979 141.160,304.167 141.390,304.167 141.594 C 304.167 141.799,304.363 142.162,304.603 142.400 C 304.962 142.756,305.000 142.730,304.817 142.250 C 304.689 141.912,304.751 141.667,304.964 141.667 C 305.167 141.667,305.296 141.479,305.250 141.250 C 305.204 141.021,305.392 140.873,305.667 140.921 C 306.044 140.988,306.021 140.895,305.574 140.544 C 305.047 140.131,305.040 140.056,305.508 139.877 C 305.851 139.745,305.952 139.807,305.799 140.055 C 305.654 140.290,305.711 140.345,305.948 140.198 C 306.160 140.068,306.333 139.736,306.333 139.461 C 306.333 139.168,306.493 139.059,306.718 139.198 C 307.291 139.552,308.697 139.652,308.495 139.325 C 308.398 139.169,308.584 138.893,308.907 138.712 C 309.230 138.531,309.396 138.285,309.275 138.164 C 309.154 138.043,308.755 138.245,308.388 138.612 C 307.800 139.200,307.648 139.223,307.110 138.806 C 306.523 138.349,306.524 138.340,307.132 138.553 C 307.524 138.691,307.903 138.584,308.132 138.271 C 308.499 137.769,308.702 137.667,309.333 137.667 C 309.517 137.667,309.667 137.442,309.667 137.167 C 309.667 136.892,309.826 136.667,310.020 136.667 C 310.214 136.667,310.273 136.829,310.150 137.027 C 310.028 137.225,310.457 137.040,311.104 136.616 C 311.752 136.191,312.275 135.767,312.268 135.672 C 312.214 134.982,312.419 134.752,312.962 134.894 C 313.604 135.061,314.244 134.467,313.849 134.071 C 313.729 133.951,313.491 134.073,313.320 134.343 C 313.055 134.763,313.009 134.755,313.005 134.292 C 313.002 133.958,313.373 133.675,313.972 133.556 C 314.790 133.392,314.913 133.240,314.745 132.597 C 314.555 131.867,314.572 131.859,315.136 132.423 C 315.700 132.986,315.692 133.039,314.946 133.651 C 314.294 134.185,314.267 134.276,314.777 134.205 C 315.112 134.158,315.487 133.967,315.610 133.781 C 315.733 133.595,316.133 133.257,316.500 133.030 C 316.937 132.759,316.975 132.675,316.611 132.787 C 316.305 132.881,315.979 132.759,315.886 132.517 C 315.767 132.208,315.924 132.130,316.411 132.257 C 316.991 132.409,317.074 132.320,316.917 131.719 C 316.706 130.912,317.248 130.723,317.546 131.500 C 317.652 131.775,317.881 132.000,318.055 132.000 C 318.230 132.000,318.286 131.859,318.179 131.687 C 318.073 131.515,318.252 131.204,318.576 130.995 C 319.128 130.641,319.128 130.628,318.583 130.798 C 318.262 130.897,318.000 130.834,318.000 130.656 C 318.000 130.479,318.225 130.333,318.500 130.333 C 318.958 130.333,319.153 129.926,319.031 129.225 C 319.005 129.074,319.123 129.037,319.294 129.142 C 319.464 129.248,319.536 129.671,319.452 130.084 L 319.300 130.833 319.857 130.083 C 320.164 129.671,320.621 129.333,320.874 129.333 C 321.127 129.333,321.333 129.173,321.333 128.976 C 321.333 128.472,322.098 127.768,322.857 127.575 C 323.211 127.484,322.938 127.393,322.250 127.372 C 321.344 127.344,321.000 127.471,321.000 127.833 C 321.000 128.108,320.834 128.333,320.631 128.333 C 320.428 128.333,320.345 128.116,320.447 127.850 C 320.571 127.527,320.473 127.429,320.150 127.553 C 319.884 127.655,319.667 127.572,319.667 127.369 C 319.667 127.166,319.434 127.000,319.150 127.000 C 318.866 127.000,318.194 126.773,317.658 126.495 L 316.682 125.991 317.990 123.412 C 322.624 114.273,320.595 102.088,313.856 98.579 C 311.453 97.328,306.688 97.350,304.167 98.625 M237.508 117.977 C 234.536 118.752,233.095 120.259,230.725 125.071 C 222.650 141.472,217.772 164.660,219.732 177.333 C 219.958 178.797,219.910 178.906,217.752 181.805 C 210.481 191.572,203.561 195.477,195.500 194.364 C 182.371 192.550,181.246 179.686,191.519 148.833 C 192.557 145.717,193.443 142.832,193.490 142.424 C 193.536 142.015,193.741 141.479,193.945 141.232 C 194.221 140.900,194.212 140.676,193.909 140.368 C 193.585 140.039,193.597 139.975,193.962 140.060 C 194.746 140.241,195.063 138.428,194.283 138.224 C 193.770 138.089,193.681 138.185,193.843 138.696 C 193.982 139.134,193.855 139.407,193.440 139.560 C 193.106 139.683,192.713 139.982,192.567 140.225 C 192.420 140.468,192.120 140.664,191.900 140.662 C 191.655 140.658,191.694 140.531,192.000 140.333 C 192.434 140.053,192.428 140.010,191.952 140.005 C 191.283 139.999,190.884 140.883,191.435 141.149 C 191.654 141.254,191.494 141.278,191.079 141.200 C 190.252 141.047,189.568 141.920,189.736 142.913 C 189.790 143.228,189.683 143.504,189.500 143.526 C 188.674 143.628,187.000 144.430,187.000 144.723 C 187.000 144.902,186.765 144.813,186.479 144.526 C 186.192 144.240,186.065 143.831,186.197 143.618 C 186.346 143.376,186.291 143.320,186.049 143.470 C 185.836 143.602,185.730 144.088,185.814 144.551 C 185.929 145.185,185.847 145.346,185.483 145.206 C 185.217 145.104,185.000 145.154,185.000 145.316 C 185.000 145.478,185.188 145.687,185.417 145.779 C 185.651 145.874,185.560 145.959,185.209 145.974 C 184.689 145.996,184.655 146.084,185.006 146.508 C 185.361 146.935,185.336 146.980,184.847 146.792 C 184.502 146.660,184.146 146.759,183.971 147.035 C 183.781 147.336,183.675 147.360,183.672 147.103 C 183.669 146.885,183.819 146.612,184.005 146.497 C 184.192 146.381,184.253 146.140,184.142 145.961 C 183.883 145.541,183.000 146.246,183.000 146.874 C 183.000 147.127,182.855 147.333,182.677 147.333 C 182.500 147.333,182.436 147.071,182.536 146.750 C 182.685 146.270,182.645 146.280,182.312 146.804 C 181.975 147.333,182.010 147.516,182.517 147.887 C 183.152 148.351,182.887 148.483,181.586 148.351 C 181.187 148.311,181.067 148.454,181.204 148.811 C 181.314 149.096,181.537 149.247,181.702 149.145 C 182.433 148.693,181.908 149.317,181.126 149.830 C 180.645 150.145,180.366 150.217,180.505 149.991 C 180.671 149.723,180.599 149.639,180.296 149.748 C 180.042 149.841,179.873 150.123,179.921 150.375 C 179.977 150.663,179.838 150.614,179.546 150.242 C 179.104 149.680,179.074 149.682,178.915 150.287 C 178.786 150.784,178.539 150.885,177.791 150.749 C 177.264 150.654,176.940 150.690,177.070 150.830 C 177.200 150.970,177.065 151.552,176.770 152.123 C 176.341 152.952,176.192 153.050,176.033 152.606 C 175.859 152.121,175.752 152.109,175.201 152.514 C 174.696 152.885,174.648 153.076,174.967 153.460 C 175.201 153.742,175.237 154.020,175.054 154.133 C 174.883 154.239,174.661 154.012,174.560 153.629 C 174.455 153.226,174.222 153.030,174.006 153.163 C 173.733 153.332,173.733 153.511,174.005 153.840 C 174.291 154.185,174.200 154.381,173.605 154.696 C 173.181 154.922,172.627 155.397,172.374 155.754 C 172.015 156.259,171.855 156.305,171.643 155.962 C 171.491 155.716,171.531 155.331,171.733 155.087 C 172.010 154.753,171.971 154.699,171.562 154.856 C 171.173 155.005,171.081 155.323,171.223 156.030 C 171.350 156.664,171.280 157.000,171.022 157.000 C 170.805 157.000,170.720 156.850,170.833 156.667 C 171.199 156.074,170.712 156.313,170.005 157.072 C 169.627 157.478,169.391 158.003,169.481 158.238 C 169.572 158.474,169.527 158.667,169.382 158.667 C 169.154 158.667,168.949 159.471,168.150 163.500 C 162.064 194.180,171.541 210.030,195.500 209.244 C 205.997 208.899,214.545 203.950,221.447 194.222 L 222.590 192.610 223.168 194.222 C 223.486 195.108,224.104 196.625,224.540 197.592 C 224.976 198.560,225.333 199.481,225.333 199.640 C 225.333 200.159,226.274 200.303,226.462 199.813 C 226.649 199.326,227.497 199.310,228.250 199.779 C 228.650 200.029,228.697 199.905,228.801 198.333 C 228.819 198.058,228.923 197.908,229.033 198.000 C 229.142 198.092,229.467 197.971,229.755 197.731 C 230.202 197.361,230.265 197.386,230.179 197.898 C 230.123 198.229,229.899 198.459,229.681 198.408 C 229.463 198.358,229.387 198.484,229.513 198.687 C 229.927 199.357,230.599 198.314,230.742 196.779 C 230.767 196.510,231.020 196.484,231.577 196.696 C 232.635 197.098,232.605 197.110,232.727 196.253 C 232.785 195.843,233.114 195.453,233.456 195.388 C 233.886 195.306,233.999 195.399,233.821 195.686 C 233.653 195.958,233.699 196.019,233.954 195.862 C 234.169 195.729,234.242 195.455,234.117 195.254 C 233.973 195.020,234.086 194.962,234.428 195.093 C 234.825 195.245,234.912 195.158,234.758 194.758 C 234.605 194.358,234.692 194.272,235.092 194.425 C 235.491 194.578,235.579 194.492,235.426 194.095 C 235.289 193.737,235.350 193.638,235.610 193.798 C 235.827 193.932,236.000 193.858,236.000 193.631 C 236.000 193.406,236.094 193.316,236.208 193.430 C 236.322 193.545,236.705 193.307,237.059 192.902 L 237.702 192.167 237.488 192.941 L 237.273 193.715 238.137 192.964 C 239.009 192.205,239.353 191.646,238.583 192.239 C 238.298 192.459,237.980 192.364,237.575 191.938 C 237.003 191.338,237.013 191.324,237.861 191.537 C 238.675 191.741,238.711 191.705,238.357 191.045 C 238.148 190.654,238.062 190.333,238.167 190.333 C 238.271 190.333,238.202 190.043,238.012 189.689 C 237.460 188.657,236.660 184.500,236.148 180.000 C 235.428 173.677,235.455 173.405,236.991 171.345 C 240.649 166.442,243.620 158.630,247.305 144.227 C 249.173 136.926,250.594 121.507,249.593 119.400 C 248.589 117.285,242.787 116.602,237.508 117.977 M320.650 128.727 C 321.061 128.855,321.058 128.906,320.626 129.072 C 320.319 129.190,319.943 128.984,319.673 128.550 C 319.291 127.938,319.295 127.888,319.696 128.205 C 319.955 128.410,320.384 128.645,320.650 128.727 M194.667 137.500 C 194.329 137.907,194.346 138.000,194.757 138.000 C 195.035 138.000,195.348 137.775,195.454 137.500 C 195.559 137.225,195.519 137.000,195.364 137.000 C 195.209 137.000,194.895 137.225,194.667 137.500 M179.849 148.863 C 179.495 149.122,179.272 149.346,179.353 149.361 C 180.421 149.563,181.000 149.482,181.000 149.131 C 181.000 148.458,180.547 148.353,179.849 148.863 M279.135 160.052 C 278.977 160.308,279.045 160.345,279.338 160.163 C 279.662 159.964,279.721 160.044,279.560 160.463 C 279.430 160.802,279.475 160.952,279.670 160.831 C 280.090 160.572,280.102 159.667,279.686 159.667 C 279.514 159.667,279.266 159.840,279.135 160.052 M132.278 185.664 C 132.217 185.846,131.741 186.029,131.222 186.072 C 129.883 186.183,129.214 187.677,130.167 188.431 C 130.366 188.589,130.300 188.673,130.000 188.641 C 129.047 188.539,128.628 188.668,128.833 189.000 C 128.947 189.183,128.870 189.333,128.664 189.333 C 128.440 189.333,128.374 189.064,128.500 188.667 C 128.626 188.269,128.560 188.000,128.336 188.000 C 128.130 188.000,128.049 188.142,128.156 188.317 C 128.264 188.491,128.057 188.791,127.695 188.985 C 127.298 189.197,127.088 189.590,127.163 189.979 C 127.245 190.405,127.098 190.625,126.727 190.633 C 124.842 190.670,124.295 190.771,124.679 191.008 C 124.981 191.194,124.921 191.311,124.465 191.428 C 123.930 191.565,123.948 191.595,124.583 191.628 C 124.996 191.649,125.333 191.517,125.333 191.333 C 125.333 191.150,125.515 191.000,125.738 191.000 C 125.999 191.000,125.951 191.192,125.601 191.542 C 125.303 191.840,124.671 192.083,124.196 192.083 C 123.293 192.083,123.036 192.487,123.750 192.784 C 123.979 192.880,123.867 192.925,123.500 192.886 C 123.133 192.846,122.671 192.712,122.472 192.588 C 122.274 192.464,122.111 192.574,122.111 192.833 C 122.111 193.092,122.236 193.227,122.389 193.132 C 122.542 193.038,122.667 193.203,122.667 193.500 C 122.667 193.797,122.520 193.949,122.340 193.838 C 122.161 193.727,121.673 193.825,121.257 194.055 C 120.841 194.286,120.401 194.448,120.281 194.414 C 120.017 194.342,120.097 195.026,120.411 195.528 C 120.536 195.726,120.419 195.889,120.152 195.889 C 119.885 195.889,119.667 195.676,119.667 195.417 C 119.667 194.846,118.935 195.029,118.728 195.651 C 118.631 195.941,118.728 196.002,119.008 195.828 C 119.300 195.648,119.355 195.696,119.181 195.978 C 118.996 196.276,118.823 196.290,118.562 196.029 C 118.363 195.830,118.043 195.669,117.850 195.672 C 117.658 195.675,117.725 195.820,118.000 195.995 C 118.420 196.262,118.346 196.461,117.538 197.240 C 117.009 197.750,116.680 197.979,116.808 197.750 C 116.935 197.521,116.880 197.333,116.686 197.333 C 116.492 197.333,116.331 197.596,116.328 197.917 C 116.324 198.415,116.276 198.427,116.000 198.000 C 115.739 197.596,115.676 197.644,115.672 198.250 C 115.669 198.662,115.508 199.000,115.314 199.000 C 115.120 199.000,115.052 198.852,115.164 198.670 C 115.281 198.482,115.148 198.425,114.853 198.539 C 114.569 198.648,114.420 198.871,114.521 199.034 C 114.622 199.198,114.472 199.666,114.186 200.074 L 113.667 200.815 113.667 200.074 C 113.667 199.667,113.520 199.333,113.342 199.333 C 113.158 199.333,113.104 199.769,113.217 200.333 C 113.436 201.428,113.171 201.590,112.360 200.860 C 111.902 200.449,111.731 200.470,111.046 201.027 C 110.614 201.379,110.415 201.667,110.606 201.667 C 110.796 201.667,111.174 201.446,111.444 201.175 C 111.877 200.742,111.958 200.742,112.124 201.175 C 112.239 201.476,112.115 201.667,111.803 201.667 C 111.505 201.667,111.392 201.825,111.530 202.049 C 111.694 202.314,111.515 202.367,110.939 202.223 C 110.404 202.089,110.092 202.160,110.058 202.424 C 110.029 202.649,109.946 203.608,109.874 204.554 C 109.801 205.500,109.654 206.418,109.546 206.593 C 109.437 206.768,109.274 207.569,109.183 208.372 C 109.092 209.176,108.787 211.633,108.506 213.833 C 106.318 230.937,109.467 258.537,113.796 260.198 C 114.188 260.349,139.823 252.226,140.297 251.801 C 140.368 251.737,139.910 251.112,139.278 250.412 C 133.820 244.372,131.099 234.315,130.752 218.903 C 130.557 210.238,131.446 197.940,132.955 188.427 C 133.143 187.239,133.115 186.640,132.865 186.537 C 132.628 186.439,132.642 186.377,132.906 186.360 C 133.130 186.345,133.226 186.108,133.121 185.833 C 132.902 185.264,132.443 185.172,132.278 185.664 M131.333 186.833 C 131.333 187.047,131.133 187.222,130.889 187.222 C 130.644 187.222,130.444 187.047,130.444 186.833 C 130.444 186.619,130.644 186.444,130.889 186.444 C 131.133 186.444,131.333 186.619,131.333 186.833 M226.903 200.333 C 226.999 200.700,227.210 201.000,227.372 201.000 C 227.721 201.000,227.733 200.894,227.464 200.194 C 227.171 199.429,226.698 199.546,226.903 200.333 M89.595 264.659 C 80.010 266.681,73.086 271.256,69.863 277.698 C 69.214 278.995,67.887 281.131,66.915 282.445 C 60.294 291.385,55.383 304.065,53.788 316.331 C 53.203 320.839,53.336 329.759,54.008 331.015 C 54.247 331.462,54.248 331.667,54.012 331.667 C 53.822 331.667,53.671 332.004,53.677 332.417 C 53.686 333.092,53.721 333.108,54.031 332.576 C 54.220 332.252,54.516 332.074,54.690 332.181 C 54.863 332.288,55.240 332.141,55.526 331.855 C 55.813 331.568,55.903 331.333,55.726 331.333 C 55.122 331.333,55.038 330.383,55.603 329.941 C 56.097 329.554,56.116 329.565,55.753 330.031 C 55.525 330.323,55.437 330.659,55.556 330.778 C 55.872 331.094,56.696 330.317,56.456 329.929 C 56.344 329.748,56.598 329.785,57.021 330.011 C 57.686 330.367,57.866 330.327,58.366 329.709 C 58.745 329.241,58.990 329.137,59.080 329.406 C 59.155 329.632,59.304 329.482,59.410 329.074 C 59.517 328.666,59.481 328.409,59.331 328.502 C 59.180 328.595,58.981 328.482,58.888 328.252 C 58.783 327.992,58.709 328.047,58.693 328.397 C 58.654 329.232,58.102 329.426,57.905 328.674 C 57.812 328.316,57.832 328.035,57.951 328.051 C 58.070 328.066,58.279 328.042,58.417 327.998 C 58.554 327.953,58.817 327.879,59.000 327.833 C 59.183 327.787,59.408 327.712,59.500 327.667 C 59.727 327.553,60.256 327.425,60.707 327.375 C 60.969 327.346,60.957 327.183,60.667 326.833 C 60.438 326.558,60.308 326.322,60.376 326.308 C 61.571 326.062,61.704 326.089,61.530 326.543 C 61.424 326.819,61.485 326.945,61.670 326.831 C 61.852 326.719,62.000 326.411,62.000 326.147 C 62.000 325.883,62.234 325.667,62.520 325.667 C 62.805 325.667,62.962 325.792,62.868 325.944 C 62.773 326.097,62.915 326.222,63.183 326.222 C 63.606 326.222,63.605 326.122,63.169 325.456 C 62.466 324.384,62.562 324.015,63.311 324.912 C 63.827 325.531,63.966 325.571,64.129 325.145 C 64.241 324.852,64.184 324.719,63.996 324.836 C 63.815 324.948,63.667 324.880,63.667 324.686 C 63.667 324.492,63.901 324.333,64.186 324.333 C 64.472 324.333,64.613 324.183,64.500 324.000 C 64.175 323.474,65.051 323.612,65.463 324.151 C 65.785 324.573,65.920 324.567,66.500 324.106 C 67.021 323.692,67.042 323.620,66.594 323.774 C 65.755 324.063,65.641 323.604,66.339 322.743 C 66.891 322.061,66.966 322.045,67.129 322.578 C 67.228 322.902,67.261 322.759,67.203 322.260 C 67.144 321.761,67.225 321.433,67.381 321.530 C 67.538 321.627,67.667 321.541,67.667 321.339 C 67.667 320.848,68.943 319.498,69.182 319.737 C 69.285 319.841,68.987 320.339,68.518 320.845 C 68.050 321.350,67.667 321.804,67.667 321.853 C 67.667 322.099,68.514 321.773,68.604 321.493 C 68.660 321.313,69.020 320.834,69.402 320.426 C 70.009 319.781,70.038 319.613,69.632 319.114 C 69.220 318.607,69.236 318.568,69.771 318.768 C 70.218 318.936,70.359 318.844,70.315 318.414 C 70.283 318.095,70.289 317.758,70.328 317.667 C 70.367 317.575,70.452 317.125,70.515 316.667 C 70.615 315.948,72.128 310.120,72.462 309.167 C 72.527 308.983,72.783 309.283,73.033 309.833 C 74.665 313.435,75.743 314.812,76.347 314.066 C 76.913 313.367,76.931 313.365,77.099 314.008 C 77.210 314.433,77.105 314.667,76.802 314.667 C 76.544 314.667,76.333 314.822,76.333 315.012 C 76.333 315.246,76.548 315.242,77.000 315.000 C 77.367 314.804,77.667 314.482,77.667 314.286 C 77.667 314.089,77.899 314.018,78.184 314.127 C 78.469 314.236,78.618 314.190,78.515 314.025 C 78.413 313.859,78.443 313.660,78.581 313.583 C 78.720 313.506,78.646 313.488,78.417 313.544 C 78.188 313.600,78.000 313.483,78.000 313.284 C 78.000 313.078,78.359 312.991,78.833 313.082 C 79.292 313.169,79.667 313.103,79.667 312.934 C 79.667 312.765,79.854 312.737,80.083 312.871 C 80.313 313.005,80.214 312.789,79.865 312.391 C 79.511 311.988,79.401 311.667,79.615 311.667 C 79.827 311.667,80.000 311.817,80.000 312.000 C 80.000 312.183,80.159 312.333,80.353 312.333 C 80.547 312.333,80.598 312.158,80.465 311.943 C 80.304 311.684,80.404 311.622,80.762 311.760 C 81.134 311.903,81.244 311.822,81.119 311.496 C 80.991 311.163,81.142 311.066,81.638 311.161 C 82.251 311.279,82.292 311.212,81.968 310.608 C 81.704 310.113,81.703 309.983,81.965 310.145 C 82.797 310.660,83.747 310.665,83.322 310.153 C 82.997 309.762,83.020 309.667,83.440 309.667 C 83.726 309.667,84.053 309.817,84.167 310.000 C 84.280 310.183,84.551 310.331,84.770 310.328 C 85.033 310.325,85.014 310.226,84.711 310.035 C 84.366 309.816,84.343 309.595,84.618 309.123 C 84.817 308.780,84.984 308.631,84.990 308.791 C 84.995 308.951,85.223 308.896,85.496 308.670 C 85.769 308.443,85.910 308.125,85.810 307.962 C 85.710 307.800,85.786 307.667,85.980 307.667 C 86.174 307.667,86.333 307.812,86.333 307.990 C 86.333 308.167,86.571 308.221,86.861 308.110 C 87.152 307.998,87.264 307.816,87.111 307.704 C 86.958 307.592,86.792 307.133,86.742 306.684 C 86.692 306.236,86.449 305.636,86.202 305.351 C 84.194 303.037,82.722 289.847,84.111 286.612 C 85.131 284.237,89.982 280.087,93.860 278.272 C 100.340 275.239,104.810 277.237,107.420 284.333 C 107.724 285.158,108.152 286.283,108.371 286.833 C 108.590 287.383,108.813 287.983,108.866 288.167 C 109.477 290.259,109.609 290.513,109.643 289.667 C 109.668 289.064,109.757 288.959,109.965 289.288 C 110.208 289.671,110.281 289.671,110.433 289.288 C 110.580 288.920,110.619 288.925,110.640 289.314 C 110.660 289.663,110.795 289.618,111.139 289.148 C 111.433 288.746,111.497 288.364,111.308 288.136 C 110.966 287.724,112.233 287.686,112.879 288.089 C 113.102 288.229,113.329 288.053,113.431 287.662 C 113.526 287.298,113.501 287.063,113.374 287.142 C 113.247 287.220,113.143 287.006,113.143 286.667 C 113.143 286.327,113.249 286.115,113.380 286.195 C 113.510 286.276,113.671 286.077,113.738 285.754 C 113.838 285.273,113.897 285.302,114.066 285.917 C 114.199 286.403,114.147 286.591,113.917 286.449 C 113.695 286.311,113.663 286.392,113.833 286.666 C 114.046 287.010,114.187 286.985,114.509 286.545 C 114.732 286.239,115.122 286.041,115.374 286.106 C 115.627 286.171,115.725 286.163,115.593 286.088 C 115.190 285.858,116.538 284.635,117.254 284.581 C 117.697 284.548,117.863 284.364,117.740 284.044 C 117.610 283.704,117.687 283.640,117.995 283.830 C 118.297 284.017,118.357 283.975,118.185 283.696 C 117.996 283.391,117.778 283.431,117.306 283.858 C 116.829 284.289,116.571 284.335,116.226 284.049 C 115.976 283.842,115.649 283.784,115.499 283.920 C 115.349 284.055,115.339 283.972,115.476 283.734 C 115.675 283.389,115.827 283.385,116.222 283.712 C 116.554 283.988,116.792 284.010,116.942 283.778 C 117.350 283.151,118.667 282.590,118.667 283.044 C 118.667 283.264,118.763 283.348,118.881 283.230 C 118.999 283.112,118.899 282.780,118.660 282.492 C 118.204 281.942,119.461 281.961,120.361 282.517 C 120.630 282.684,120.629 282.552,120.355 282.040 C 120.117 281.596,120.101 281.333,120.311 281.333 C 120.495 281.333,120.561 281.071,120.458 280.750 C 120.305 280.274,120.334 280.256,120.613 280.651 C 120.802 280.917,120.862 281.292,120.747 281.484 C 120.633 281.676,120.781 281.637,121.078 281.396 C 122.410 280.317,115.371 272.069,110.343 268.817 C 103.932 264.669,96.557 263.192,89.595 264.659 M112.544 287.173 C 112.431 287.468,112.180 287.611,111.986 287.491 C 111.745 287.342,111.759 287.124,112.031 286.796 C 112.516 286.212,112.825 286.440,112.544 287.173 M85.454 307.833 C 85.569 308.133,85.456 308.333,85.173 308.333 C 84.913 308.333,84.547 308.596,84.360 308.917 C 84.166 309.249,84.016 309.319,84.010 309.079 C 83.983 307.947,85.121 306.966,85.454 307.833 M66.000 322.000 C 66.000 322.183,66.000 322.408,66.000 322.500 C 66.000 322.967,65.552 322.752,65.478 322.250 C 65.431 321.929,65.529 321.667,65.696 321.667 C 65.863 321.667,66.000 321.817,66.000 322.000 M58.000 329.718 C 58.000 330.309,57.424 329.964,57.054 329.151 C 56.496 327.928,56.575 327.792,57.333 328.667 C 57.700 329.089,58.000 329.562,58.000 329.718 M55.098 331.778 C 54.957 332.006,54.824 331.960,54.728 331.650 C 54.645 331.384,54.412 330.942,54.211 330.667 C 54.010 330.392,54.176 330.449,54.581 330.795 C 54.986 331.140,55.219 331.582,55.098 331.778 " stroke="none" fill="#2ca9b5" fill-rule="evenodd"></path><path id="path1" d="M356.146 197.083 L 355.167 198.167 356.250 197.188 C 357.260 196.275,357.487 196.000,357.229 196.000 C 357.172 196.000,356.684 196.487,356.146 197.083 M309.429 265.205 C 309.754 265.751,308.588 266.697,308.023 266.347 C 307.391 265.957,306.668 266.283,306.889 266.859 C 306.989 267.118,307.204 267.247,307.368 267.145 C 307.532 267.044,307.667 267.120,307.667 267.314 C 307.667 267.508,307.517 267.667,307.333 267.667 C 307.150 267.667,307.037 267.854,307.083 268.083 C 307.129 268.313,306.979 268.485,306.750 268.467 C 305.224 268.345,305.236 268.352,305.678 267.819 C 306.025 267.401,306.024 267.230,305.670 266.903 C 305.328 266.585,305.288 266.593,305.484 266.938 C 305.627 267.191,305.472 267.672,305.116 268.078 C 304.777 268.465,304.711 268.657,304.968 268.506 C 305.284 268.320,305.359 268.355,305.198 268.615 C 304.878 269.133,303.995 269.107,304.122 268.583 C 304.178 268.354,304.161 268.280,304.084 268.419 C 304.006 268.557,303.802 268.584,303.630 268.477 C 303.458 268.371,303.352 268.407,303.394 268.559 C 303.563 269.160,302.974 271.643,302.609 271.869 C 302.352 272.028,302.289 271.931,302.422 271.582 C 302.540 271.274,302.418 270.976,302.128 270.865 C 301.855 270.760,301.717 270.812,301.821 270.981 C 301.926 271.149,301.842 271.391,301.637 271.519 C 301.371 271.683,301.393 271.842,301.714 272.067 C 302.080 272.323,302.071 272.357,301.667 272.241 C 301.391 272.162,301.216 271.814,301.276 271.465 C 301.383 270.846,301.375 270.846,300.910 271.468 C 300.619 271.856,300.254 272.008,299.967 271.860 C 299.710 271.726,299.791 271.853,300.147 272.142 C 300.503 272.431,300.940 272.667,301.119 272.667 C 301.298 272.667,301.365 272.746,301.268 272.843 C 301.172 272.939,300.708 272.873,300.239 272.694 C 299.596 272.450,299.287 272.488,298.988 272.848 C 298.770 273.111,298.435 273.229,298.244 273.111 C 298.038 272.984,297.997 273.059,298.145 273.298 C 298.337 273.609,298.501 273.609,298.871 273.302 C 299.134 273.084,299.424 272.979,299.514 273.070 C 299.605 273.160,299.015 273.586,298.205 274.016 C 297.123 274.590,296.763 274.966,296.852 275.429 C 296.947 275.924,296.877 275.979,296.526 275.688 C 296.185 275.406,296.028 275.448,295.868 275.863 C 295.738 276.203,295.418 276.346,295.021 276.242 C 294.576 276.126,294.436 276.214,294.560 276.536 C 294.657 276.789,294.846 276.929,294.979 276.846 C 295.113 276.763,295.162 277.996,295.089 279.586 C 294.964 282.308,294.539 283.984,293.181 287.125 L 292.623 288.417 293.561 288.179 C 294.078 288.048,295.400 287.797,296.500 287.622 C 297.600 287.446,299.289 287.057,300.254 286.756 C 303.204 285.836,303.210 286.278,300.453 299.833 C 297.123 316.204,294.834 323.406,291.595 327.714 C 281.215 341.514,267.103 347.541,263.234 339.827 C 260.819 335.012,261.935 322.516,265.868 310.333 C 266.817 307.394,271.349 297.541,272.001 297.000 C 272.954 296.209,273.587 294.462,273.141 293.853 C 272.699 293.250,272.481 293.489,272.627 294.417 C 272.649 294.554,272.507 294.667,272.311 294.667 C 272.102 294.667,272.046 294.380,272.176 293.971 C 272.369 293.363,272.315 293.320,271.742 293.626 C 271.382 293.819,270.969 293.869,270.824 293.738 C 270.679 293.607,270.669 293.690,270.803 293.922 C 270.937 294.154,271.177 294.264,271.336 294.165 C 271.496 294.066,271.604 294.278,271.577 294.636 C 271.550 294.994,271.408 295.213,271.261 295.122 C 270.857 294.872,269.631 295.340,269.833 295.667 C 269.930 295.824,269.708 296.048,269.338 296.165 C 268.969 296.282,268.667 296.593,268.667 296.856 C 268.667 297.120,268.351 297.333,267.959 297.333 C 267.338 297.333,267.308 297.401,267.709 297.888 C 268.119 298.384,268.097 298.405,267.500 298.090 C 266.830 297.736,265.775 298.330,266.242 298.798 C 266.353 298.909,266.186 299.000,265.869 299.000 C 265.519 299.000,265.376 299.163,265.505 299.417 C 265.621 299.646,265.499 299.569,265.234 299.245 C 264.774 298.683,264.724 298.683,264.111 299.245 C 263.757 299.569,263.646 299.717,263.862 299.575 C 264.096 299.421,264.338 299.530,264.457 299.842 C 264.574 300.145,264.520 300.282,264.330 300.164 C 264.148 300.052,264.000 300.112,264.000 300.298 C 264.000 300.483,263.552 300.578,263.004 300.509 C 262.457 300.440,261.923 300.522,261.818 300.691 C 261.713 300.861,261.786 301.000,261.980 301.000 C 262.174 301.000,262.333 301.151,262.333 301.337 C 262.333 301.526,261.825 301.610,261.167 301.528 C 260.525 301.449,260.000 301.531,260.000 301.711 C 260.000 301.892,259.813 301.931,259.583 301.800 C 259.354 301.668,259.278 301.683,259.414 301.833 C 259.550 301.983,259.504 302.295,259.311 302.526 C 259.045 302.848,259.119 302.906,259.625 302.774 C 259.989 302.679,260.372 302.381,260.475 302.113 C 260.578 301.844,260.822 301.723,261.018 301.844 C 261.245 301.985,261.156 302.241,260.770 302.557 C 260.202 303.020,260.212 303.040,260.936 302.884 C 261.580 302.746,261.639 302.798,261.300 303.207 C 261.019 303.546,260.789 303.589,260.547 303.347 C 260.305 303.105,259.848 303.330,259.050 304.083 C 258.417 304.679,258.022 304.954,258.171 304.693 C 258.371 304.345,258.301 304.274,257.905 304.426 C 257.504 304.580,257.419 304.489,257.570 304.066 C 257.830 303.341,257.535 303.619,257.044 304.563 C 256.759 305.111,256.761 305.352,257.051 305.531 C 257.306 305.689,257.345 305.622,257.167 305.333 C 256.987 305.042,257.027 304.977,257.287 305.138 C 257.502 305.271,257.590 305.521,257.482 305.695 C 257.375 305.869,257.148 305.925,256.977 305.819 C 256.806 305.714,256.664 305.824,256.662 306.064 C 256.657 306.416,256.604 306.417,256.385 306.073 C 256.189 305.763,255.893 305.734,255.307 305.968 C 254.863 306.146,254.725 306.303,255.000 306.317 C 255.437 306.340,255.438 306.383,255.011 306.653 C 254.696 306.852,254.341 306.823,254.011 306.570 C 253.730 306.354,253.787 306.514,254.137 306.924 C 254.487 307.335,254.675 307.770,254.554 307.891 C 254.432 308.012,254.333 307.936,254.333 307.722 C 254.333 307.508,254.174 307.333,253.980 307.333 C 253.786 307.333,253.720 307.483,253.833 307.667 C 254.218 308.289,253.645 308.693,253.122 308.169 C 252.845 307.893,252.442 307.669,252.226 307.672 C 251.978 307.675,251.956 307.767,252.167 307.922 C 253.294 308.750,253.453 309.376,252.475 309.132 C 251.557 308.904,251.529 308.926,252.000 309.509 C 252.320 309.905,252.345 310.035,252.069 309.869 C 251.832 309.726,251.415 309.794,251.144 310.019 C 250.873 310.244,250.554 310.332,250.436 310.214 C 250.319 310.096,250.435 309.995,250.694 309.990 C 251.021 309.983,250.979 309.871,250.558 309.626 C 250.224 309.431,249.861 309.361,249.753 309.469 C 249.644 309.578,249.727 309.667,249.936 309.667 C 250.208 309.667,250.223 309.913,249.989 310.528 C 249.809 311.002,249.742 311.519,249.840 311.677 C 249.938 311.836,249.723 311.908,249.362 311.839 C 248.892 311.748,248.624 311.962,248.412 312.598 C 248.125 313.459,248.112 313.463,247.923 312.741 C 247.798 312.264,247.855 312.077,248.083 312.218 C 248.291 312.346,248.338 312.278,248.198 312.052 C 248.068 311.840,247.770 311.667,247.536 311.667 C 247.065 311.667,246.944 312.645,247.350 313.167 C 247.508 313.369,247.292 313.500,246.805 313.500 C 246.362 313.500,246.000 313.357,246.000 313.183 C 246.000 313.009,245.814 313.053,245.586 313.281 C 245.292 313.574,245.278 313.763,245.537 313.931 C 245.785 314.091,245.718 314.358,245.329 314.762 C 244.781 315.330,244.760 315.315,244.884 314.429 C 245.013 313.506,245.012 313.506,244.662 314.312 C 244.468 314.758,244.381 315.311,244.469 315.540 C 244.557 315.769,244.481 316.006,244.300 316.067 C 244.025 316.158,243.882 316.696,243.690 318.366 C 243.677 318.475,243.179 319.088,242.583 319.727 C 241.987 320.367,240.900 321.623,240.167 322.518 C 239.433 323.412,237.708 325.441,236.333 327.026 C 234.958 328.611,233.593 330.191,233.300 330.537 C 221.534 344.416,206.186 353.133,200.682 349.064 C 199.787 348.403,199.630 348.374,199.452 348.839 C 199.339 349.132,199.053 349.297,198.815 349.206 C 198.271 348.997,197.724 349.658,197.842 350.382 C 197.931 350.931,197.490 351.017,196.800 350.585 C 196.595 350.457,196.240 350.718,195.994 351.178 C 195.549 352.010,194.333 352.327,194.333 351.611 C 194.333 351.397,194.234 351.321,194.113 351.442 C 193.992 351.563,194.180 351.985,194.530 352.380 C 195.163 353.092,195.162 353.095,194.437 352.714 C 193.958 352.463,193.636 352.447,193.501 352.666 C 193.296 352.996,193.545 353.134,194.140 353.021 C 194.308 352.989,194.272 353.172,194.059 353.429 C 193.847 353.685,193.709 353.956,193.753 354.031 C 193.797 354.105,193.772 354.130,193.697 354.086 C 193.623 354.042,193.354 354.178,193.100 354.389 C 192.376 354.990,191.760 354.207,192.346 353.431 C 192.774 352.863,192.765 352.862,192.171 353.406 C 191.558 353.967,191.559 353.995,192.189 354.705 C 192.829 355.425,192.828 355.428,192.149 355.072 C 191.258 354.605,190.210 355.143,191.000 355.662 C 191.364 355.901,191.381 355.991,191.064 355.995 C 190.824 355.998,190.716 356.143,190.824 356.319 C 190.933 356.494,190.643 356.885,190.180 357.188 C 189.707 357.499,189.439 357.906,189.567 358.120 C 189.710 358.359,189.605 358.347,189.283 358.086 C 189.002 357.859,188.673 357.771,188.553 357.892 C 188.432 358.012,188.333 357.961,188.333 357.778 C 188.333 357.595,187.996 357.482,187.583 357.528 C 187.171 357.574,186.646 357.624,186.417 357.639 C 186.188 357.654,186.024 357.779,186.053 357.917 C 186.167 358.456,185.576 359.319,185.215 359.139 C 185.005 359.034,185.698 359.780,186.754 360.797 C 198.316 371.925,216.779 364.613,238.419 340.333 L 240.647 337.833 240.658 339.167 C 240.763 351.682,248.320 361.584,257.667 361.457 C 270.545 361.281,286.032 352.472,293.843 340.879 L 295.833 337.925 296.039 341.255 C 297.056 357.768,304.257 363.883,318.465 360.301 C 326.428 358.293,333.148 351.847,349.709 330.333 C 366.169 308.950,368.930 303.900,365.848 300.818 C 363.461 298.431,361.593 299.809,353.934 309.605 C 326.311 344.937,318.702 351.774,312.784 346.579 C 308.473 342.794,308.684 340.103,315.979 305.833 C 319.878 287.520,320.543 282.679,319.270 281.881 C 318.734 281.546,312.764 281.983,310.240 282.543 L 309.313 282.748 310.468 280.791 C 313.836 275.080,313.694 268.949,310.116 265.667 C 309.616 265.208,309.307 265.001,309.429 265.205 M280.456 284.097 C 279.535 285.157,279.137 285.827,279.600 285.541 C 279.997 285.296,281.464 283.333,281.249 283.333 C 281.178 283.333,280.821 283.677,280.456 284.097 M276.630 289.083 C 276.238 289.829,276.240 289.830,276.951 289.198 C 277.746 288.493,277.819 288.333,277.345 288.333 C 277.168 288.333,276.846 288.671,276.630 289.083 M275.498 290.331 C 275.611 290.513,275.549 290.925,275.362 291.247 C 275.043 291.794,275.020 291.790,275.010 291.194 C 274.999 290.514,274.678 290.640,274.525 291.386 C 274.311 292.422,273.709 293.509,273.688 292.897 C 273.676 292.565,273.516 292.387,273.332 292.501 C 273.113 292.636,273.127 292.947,273.373 293.408 L 273.748 294.109 274.358 293.304 C 275.769 291.441,276.413 290.000,275.835 290.000 C 275.537 290.000,275.386 290.149,275.498 290.331 M197.005 351.497 C 197.160 351.401,197.384 351.479,197.502 351.669 C 197.620 351.860,197.593 351.995,197.441 351.969 C 196.767 351.852,196.311 352.028,196.500 352.333 C 196.613 352.517,196.463 352.667,196.167 352.667 C 195.816 352.667,195.720 352.521,195.892 352.250 C 196.037 352.021,196.178 351.721,196.203 351.583 C 196.325 350.934,196.399 350.865,196.555 351.252 C 196.648 351.482,196.850 351.592,197.005 351.497 M189.872 356.186 C 189.608 356.873,189.883 357.250,190.325 356.808 C 190.498 356.636,190.516 356.296,190.366 356.053 C 190.151 355.705,190.045 355.734,189.872 356.186 M187.867 358.417 C 187.999 358.646,187.983 358.721,187.830 358.583 C 187.678 358.445,187.279 358.581,186.942 358.886 C 186.171 359.584,185.778 359.270,186.508 358.540 C 187.156 357.892,187.545 357.857,187.867 358.417 " stroke="none" fill="#1c6aa2" fill-rule="evenodd"></path><path id="path2" d="M129.333 34.525 C 114.627 37.191,97.461 52.381,84.311 74.365 C 75.012 89.911,69.760 102.537,54.197 146.753 C 52.083 152.760,50.212 157.938,50.039 158.261 C 49.836 158.640,48.263 159.293,45.612 160.100 C 30.798 164.609,19.687 169.371,18.464 171.736 C 16.260 175.999,19.438 178.473,25.500 177.214 C 30.543 176.167,43.962 174.184,44.225 174.447 C 44.365 174.587,40.237 186.435,37.411 194.000 C 23.153 232.179,21.182 236.275,11.692 247.452 C 11.185 248.048,11.250 248.063,13.500 247.844 C 21.342 247.082,27.447 246.111,34.665 244.479 C 48.849 241.271,51.360 236.552,62.650 191.902 C 66.455 176.853,67.910 171.294,68.071 171.179 C 68.124 171.141,70.117 170.939,72.500 170.729 C 91.920 169.016,102.035 169.346,112.203 172.024 L 114.907 172.736 114.482 175.118 C 114.248 176.428,113.663 179.975,113.182 183.000 C 112.701 186.025,111.931 190.790,111.471 193.589 C 111.011 196.388,110.726 198.826,110.837 199.006 C 110.948 199.186,110.903 199.333,110.737 199.333 C 110.571 199.333,110.422 199.783,110.406 200.333 C 110.375 201.435,110.694 201.603,111.340 200.825 C 111.718 200.369,111.821 200.369,112.324 200.825 C 113.170 201.590,113.438 201.442,113.217 200.333 C 113.104 199.769,113.158 199.333,113.342 199.333 C 113.520 199.333,113.667 199.667,113.667 200.074 L 113.667 200.815 114.186 200.074 C 114.472 199.666,114.622 199.198,114.521 199.034 C 114.420 198.871,114.569 198.648,114.853 198.539 C 115.148 198.425,115.281 198.482,115.164 198.670 C 115.052 198.852,115.120 199.000,115.314 199.000 C 115.508 199.000,115.669 198.662,115.672 198.250 C 115.676 197.644,115.739 197.596,116.000 198.000 C 116.276 198.427,116.324 198.415,116.328 197.917 C 116.331 197.596,116.492 197.333,116.686 197.333 C 116.880 197.333,116.935 197.521,116.808 197.750 C 116.680 197.979,117.009 197.750,117.538 197.240 C 118.346 196.461,118.420 196.262,118.000 195.995 C 117.725 195.820,117.658 195.675,117.850 195.672 C 118.043 195.669,118.363 195.830,118.562 196.029 C 118.823 196.290,118.996 196.276,119.181 195.978 C 119.355 195.696,119.300 195.648,119.008 195.828 C 118.728 196.002,118.631 195.941,118.728 195.651 C 118.935 195.029,119.667 194.846,119.667 195.417 C 119.667 195.676,119.885 195.889,120.152 195.889 C 120.419 195.889,120.536 195.726,120.411 195.528 C 120.097 195.026,120.017 194.342,120.281 194.414 C 120.401 194.448,120.841 194.286,121.257 194.055 C 121.673 193.825,122.161 193.727,122.340 193.838 C 122.520 193.949,122.667 193.797,122.667 193.500 C 122.667 193.203,122.542 193.038,122.389 193.132 C 122.236 193.227,122.111 193.092,122.111 192.833 C 122.111 192.574,122.274 192.464,122.472 192.588 C 122.671 192.712,123.133 192.846,123.500 192.886 C 123.867 192.925,123.979 192.880,123.750 192.784 C 123.036 192.487,123.293 192.083,124.196 192.083 C 124.671 192.083,125.303 191.840,125.601 191.542 C 125.951 191.192,125.999 191.000,125.738 191.000 C 125.515 191.000,125.333 191.150,125.333 191.333 C 125.333 191.517,124.996 191.649,124.583 191.628 C 123.948 191.595,123.930 191.565,124.465 191.428 C 124.921 191.311,124.981 191.194,124.679 191.008 C 124.295 190.771,124.842 190.670,126.727 190.633 C 127.098 190.625,127.245 190.405,127.163 189.979 C 127.088 189.590,127.298 189.197,127.695 188.985 C 128.057 188.791,128.264 188.491,128.156 188.317 C 128.049 188.142,128.130 188.000,128.336 188.000 C 128.560 188.000,128.626 188.269,128.500 188.667 C 128.374 189.064,128.440 189.333,128.664 189.333 C 128.870 189.333,128.947 189.183,128.833 189.000 C 128.628 188.668,129.047 188.539,130.000 188.641 C 130.300 188.673,130.366 188.589,130.167 188.431 C 129.221 187.682,129.880 186.183,131.203 186.073 C 131.712 186.031,132.250 185.810,132.398 185.582 C 132.606 185.261,132.741 185.280,132.995 185.667 C 133.284 186.107,133.324 186.105,133.328 185.650 C 133.331 185.366,133.146 184.944,132.917 184.714 C 132.583 184.377,132.615 184.338,133.083 184.516 C 133.539 184.689,133.658 184.567,133.633 183.952 C 133.573 182.440,134.434 177.266,134.799 176.953 C 135.001 176.779,136.517 175.773,138.167 174.716 C 142.696 171.817,147.144 167.179,149.882 162.500 C 150.702 161.098,153.044 156.267,152.941 156.189 C 152.882 156.144,151.258 156.297,149.333 156.528 C 144.061 157.162,137.667 157.142,137.667 156.490 C 137.667 155.953,140.684 137.669,143.001 124.167 C 144.474 115.580,147.014 100.271,147.867 94.833 C 148.155 93.000,148.672 89.775,149.017 87.667 C 149.649 83.793,151.369 72.549,152.688 63.667 C 154.215 53.375,153.910 46.164,151.761 41.775 C 148.769 35.665,139.528 32.678,129.333 34.525 M135.034 48.424 C 138.819 50.957,138.160 61.026,132.695 84.167 C 131.233 90.356,128.069 104.964,123.958 124.500 C 122.565 131.122,119.715 145.437,118.814 150.341 C 118.086 154.300,118.528 154.046,113.322 153.508 C 100.007 152.131,85.178 151.983,77.038 153.146 C 74.951 153.444,73.186 153.630,73.116 153.560 C 72.415 152.859,83.698 118.935,89.766 103.500 C 100.706 75.673,105.092 67.793,114.934 58.277 C 123.191 50.293,131.638 46.152,135.034 48.424 M194.500 118.003 C 185.616 119.091,181.396 122.200,177.085 130.833 C 175.339 134.331,170.687 149.818,170.553 152.583 C 170.524 153.178,170.412 153.666,170.306 153.666 C 170.199 153.666,170.104 153.854,170.094 154.083 C 170.076 154.549,169.803 155.801,169.485 156.879 C 169.370 157.271,169.442 157.695,169.646 157.820 C 169.850 157.946,169.995 157.926,169.969 157.775 C 169.856 157.125,170.034 156.725,170.517 156.539 C 170.814 156.426,170.948 156.482,170.831 156.670 C 170.719 156.852,170.805 157.000,171.022 157.000 C 171.280 157.000,171.350 156.664,171.223 156.030 C 171.081 155.323,171.173 155.005,171.562 154.856 C 171.971 154.699,172.010 154.753,171.733 155.087 C 171.531 155.331,171.491 155.716,171.643 155.962 C 171.855 156.305,172.015 156.259,172.374 155.754 C 172.627 155.397,173.181 154.922,173.605 154.696 C 174.200 154.381,174.291 154.185,174.005 153.840 C 173.733 153.511,173.733 153.332,174.006 153.163 C 174.222 153.030,174.455 153.226,174.560 153.629 C 174.661 154.012,174.883 154.239,175.054 154.133 C 175.237 154.020,175.201 153.742,174.967 153.460 C 174.648 153.076,174.696 152.885,175.201 152.514 C 175.752 152.109,175.859 152.121,176.033 152.606 C 176.192 153.050,176.341 152.952,176.770 152.123 C 177.065 151.552,177.200 150.970,177.070 150.830 C 176.940 150.690,177.264 150.654,177.791 150.749 C 178.539 150.885,178.786 150.784,178.915 150.287 C 179.074 149.682,179.104 149.680,179.546 150.242 C 179.838 150.614,179.977 150.663,179.921 150.375 C 179.873 150.123,180.042 149.841,180.296 149.748 C 180.599 149.639,180.671 149.723,180.505 149.991 C 180.366 150.217,180.645 150.145,181.126 149.830 C 181.908 149.317,182.433 148.693,181.702 149.145 C 181.537 149.247,181.314 149.096,181.204 148.811 C 181.067 148.454,181.187 148.311,181.586 148.351 C 182.887 148.483,183.152 148.351,182.517 147.887 C 182.010 147.516,181.975 147.333,182.312 146.804 C 182.645 146.280,182.685 146.270,182.536 146.750 C 182.436 147.071,182.500 147.333,182.677 147.333 C 182.855 147.333,183.000 147.127,183.000 146.874 C 183.000 146.246,183.883 145.541,184.142 145.961 C 184.253 146.140,184.192 146.381,184.005 146.497 C 183.819 146.612,183.669 146.885,183.672 147.103 C 183.675 147.360,183.781 147.336,183.971 147.035 C 184.146 146.759,184.502 146.660,184.847 146.792 C 185.336 146.980,185.361 146.935,185.006 146.508 C 184.655 146.084,184.689 145.996,185.209 145.974 C 185.560 145.959,185.651 145.874,185.417 145.779 C 185.188 145.687,185.000 145.478,185.000 145.316 C 185.000 145.154,185.217 145.104,185.483 145.206 C 185.847 145.346,185.929 145.185,185.814 144.551 C 185.730 144.088,185.836 143.602,186.049 143.470 C 186.291 143.320,186.346 143.376,186.197 143.618 C 186.065 143.831,186.192 144.240,186.479 144.526 C 186.765 144.813,187.000 144.902,187.000 144.723 C 187.000 144.430,188.674 143.628,189.500 143.526 C 189.683 143.504,189.790 143.228,189.736 142.913 C 189.568 141.920,190.252 141.047,191.079 141.200 C 191.494 141.278,191.654 141.254,191.435 141.149 C 190.884 140.883,191.283 139.999,191.952 140.005 C 192.428 140.010,192.434 140.053,192.000 140.333 C 191.694 140.531,191.655 140.658,191.900 140.662 C 192.120 140.664,192.420 140.468,192.567 140.225 C 192.713 139.982,193.106 139.683,193.440 139.560 C 193.855 139.407,193.982 139.134,193.843 138.696 C 193.674 138.165,193.770 138.084,194.403 138.223 C 194.953 138.344,195.040 138.302,194.716 138.072 C 194.357 137.817,194.422 137.642,195.040 137.209 C 195.466 136.911,195.689 136.667,195.536 136.667 C 195.382 136.667,195.472 136.329,195.735 135.917 C 195.997 135.504,196.781 133.592,197.477 131.667 C 198.172 129.742,198.929 127.792,199.160 127.333 C 199.391 126.875,199.844 125.675,200.167 124.667 C 200.490 123.658,200.865 122.683,201.000 122.500 C 201.388 121.972,202.418 118.640,202.246 118.468 C 202.014 118.236,198.289 117.664,197.333 117.714 C 196.875 117.738,195.600 117.868,194.500 118.003 M181.000 149.131 C 181.000 149.482,180.421 149.563,179.353 149.361 C 179.272 149.346,179.495 149.122,179.849 148.863 C 180.547 148.353,181.000 148.458,181.000 149.131 M130.444 186.833 C 130.444 187.047,130.644 187.222,130.889 187.222 C 131.133 187.222,131.333 187.047,131.333 186.833 C 131.333 186.619,131.133 186.444,130.889 186.444 C 130.644 186.444,130.444 186.619,130.444 186.833 M111.672 200.910 C 111.669 201.136,111.277 201.418,110.802 201.538 C 110.163 201.698,110.054 201.829,110.385 202.039 C 110.986 202.420,111.754 202.411,111.516 202.025 C 111.411 201.856,111.548 201.668,111.820 201.609 C 112.175 201.531,112.225 201.358,111.996 201.000 C 111.790 200.678,111.675 200.646,111.672 200.910 " stroke="none" fill="#35c0ae" fill-rule="evenodd"></path><path id="path3" d="M383.583 149.563 C 383.262 149.647,383.000 149.863,383.000 150.044 C 383.000 150.225,382.871 150.293,382.712 150.195 C 382.554 150.097,381.917 150.576,381.296 151.259 C 379.885 152.809,378.239 155.000,378.483 155.000 C 378.584 155.000,378.404 155.289,378.083 155.643 C 377.161 156.659,376.827 157.104,375.799 158.684 C 375.268 159.500,374.684 160.333,374.501 160.537 C 374.317 160.740,372.774 162.715,371.072 164.925 C 359.375 180.113,347.291 191.807,339.031 195.934 L 335.896 197.500 332.139 197.500 C 327.067 197.500,325.253 196.028,324.830 191.565 C 324.733 190.538,324.333 189.896,324.333 190.766 C 324.333 191.065,324.033 191.470,323.667 191.667 C 323.300 191.863,323.000 192.196,323.000 192.407 C 323.000 192.618,322.674 193.138,322.275 193.562 C 321.877 193.986,321.711 194.333,321.906 194.333 C 322.102 194.333,322.336 194.526,322.426 194.762 C 322.542 195.063,322.232 195.186,321.379 195.178 C 320.562 195.170,320.168 195.013,320.167 194.694 C 320.167 194.435,319.942 194.161,319.667 194.086 C 319.222 193.964,319.222 193.989,319.667 194.303 C 320.165 194.655,319.613 194.838,318.461 194.702 C 318.256 194.678,317.881 194.922,317.628 195.246 C 317.227 195.757,317.232 195.787,317.667 195.477 C 318.401 194.954,319.907 194.944,320.105 195.461 C 320.219 195.756,320.032 195.896,319.558 195.871 C 319.137 195.849,318.823 196.041,318.803 196.333 C 318.733 197.338,318.656 197.407,318.103 196.957 C 317.621 196.567,317.580 196.569,317.824 196.973 C 318.033 197.320,317.972 197.394,317.597 197.250 C 317.270 197.125,316.931 197.339,316.662 197.842 C 316.430 198.276,316.028 198.713,315.769 198.812 C 315.509 198.911,315.390 198.845,315.502 198.663 C 315.614 198.482,315.360 198.334,314.936 198.334 C 314.014 198.334,312.380 199.663,312.580 200.250 C 312.658 200.479,312.515 200.667,312.261 200.667 C 312.007 200.667,311.590 200.479,311.333 200.250 C 310.940 199.900,310.930 199.920,311.270 200.372 C 311.594 200.804,311.575 200.995,311.171 201.330 C 310.894 201.560,310.667 201.955,310.667 202.207 C 310.667 202.460,310.521 202.667,310.344 202.667 C 310.166 202.667,310.117 202.916,310.234 203.221 C 310.376 203.592,310.318 203.697,310.060 203.537 C 309.808 203.381,309.743 203.478,309.873 203.816 C 309.982 204.101,310.205 204.333,310.369 204.333 C 310.533 204.333,310.668 204.521,310.669 204.750 C 310.673 205.497,313.344 208.307,315.541 209.875 C 328.279 218.965,346.366 210.147,367.931 184.333 C 377.126 173.328,387.513 158.108,388.359 154.403 C 389.126 151.039,386.832 148.714,383.583 149.563 M324.222 192.444 C 324.222 192.689,324.047 192.889,323.833 192.889 C 323.619 192.889,323.444 192.689,323.444 192.444 C 323.444 192.200,323.619 192.000,323.833 192.000 C 324.047 192.000,324.222 192.200,324.222 192.444 M314.452 199.170 C 314.314 199.531,314.412 199.616,314.796 199.468 C 315.092 199.355,315.333 199.417,315.333 199.607 C 315.333 199.796,314.879 199.894,314.323 199.824 C 313.735 199.749,313.394 199.829,313.509 200.014 C 313.617 200.190,313.547 200.333,313.353 200.333 C 312.849 200.333,312.916 199.979,313.552 199.276 C 314.220 198.537,314.718 198.479,314.452 199.170 M293.500 260.805 C 277.519 264.489,256.709 285.116,247.904 306.000 C 247.634 306.642,247.148 307.761,246.824 308.487 C 246.500 309.213,246.217 310.038,246.195 310.320 C 246.172 310.602,245.965 311.169,245.735 311.579 C 244.958 312.959,244.633 315.484,245.325 314.766 C 245.717 314.360,245.785 314.091,245.537 313.931 C 245.278 313.763,245.292 313.574,245.586 313.281 C 245.814 313.053,246.000 313.009,246.000 313.183 C 246.000 313.357,246.362 313.500,246.805 313.500 C 247.292 313.500,247.508 313.369,247.350 313.167 C 246.944 312.645,247.065 311.667,247.536 311.667 C 247.770 311.667,248.068 311.840,248.198 312.052 C 248.338 312.278,248.291 312.346,248.083 312.218 C 247.855 312.077,247.798 312.264,247.923 312.741 C 248.112 313.463,248.125 313.459,248.412 312.598 C 248.624 311.962,248.892 311.748,249.362 311.839 C 249.723 311.908,249.938 311.836,249.840 311.677 C 249.742 311.519,249.809 311.002,249.989 310.528 C 250.223 309.913,250.208 309.667,249.936 309.667 C 249.727 309.667,249.644 309.578,249.753 309.469 C 249.861 309.361,250.224 309.431,250.558 309.626 C 250.979 309.871,251.021 309.983,250.694 309.990 C 250.435 309.995,250.319 310.096,250.436 310.214 C 250.554 310.332,250.873 310.244,251.144 310.019 C 251.415 309.794,251.832 309.726,252.069 309.869 C 252.345 310.035,252.320 309.905,252.000 309.509 C 251.529 308.926,251.557 308.904,252.475 309.132 C 253.453 309.376,253.294 308.750,252.167 307.922 C 251.956 307.767,251.978 307.675,252.226 307.672 C 252.442 307.669,252.845 307.893,253.122 308.169 C 253.645 308.693,254.218 308.289,253.833 307.667 C 253.720 307.483,253.786 307.333,253.980 307.333 C 254.174 307.333,254.333 307.508,254.333 307.722 C 254.333 307.936,254.432 308.012,254.554 307.891 C 254.675 307.770,254.487 307.335,254.137 306.924 C 253.787 306.514,253.730 306.354,254.011 306.570 C 254.341 306.823,254.696 306.852,255.011 306.653 C 255.438 306.383,255.437 306.340,255.000 306.317 C 254.725 306.303,254.863 306.146,255.307 305.968 C 255.893 305.734,256.189 305.763,256.385 306.073 C 256.604 306.417,256.657 306.416,256.662 306.064 C 256.664 305.824,256.806 305.714,256.977 305.819 C 257.148 305.925,257.375 305.869,257.482 305.695 C 257.590 305.521,257.502 305.271,257.287 305.138 C 257.027 304.977,256.987 305.042,257.167 305.333 C 257.345 305.622,257.306 305.689,257.051 305.531 C 256.761 305.352,256.759 305.111,257.044 304.563 C 257.535 303.619,257.830 303.341,257.570 304.066 C 257.419 304.489,257.504 304.580,257.905 304.426 C 258.301 304.274,258.371 304.345,258.171 304.693 C 258.022 304.954,258.417 304.679,259.050 304.083 C 259.848 303.330,260.305 303.105,260.547 303.347 C 260.789 303.589,261.019 303.546,261.300 303.207 C 261.639 302.798,261.580 302.746,260.936 302.884 C 260.212 303.040,260.202 303.020,260.770 302.557 C 261.123 302.268,261.235 301.979,261.040 301.858 C 260.857 301.745,260.586 301.855,260.437 302.101 C 260.288 302.348,259.883 302.655,259.536 302.783 C 259.030 302.969,258.980 302.925,259.283 302.560 C 259.491 302.310,259.550 301.983,259.414 301.833 C 259.278 301.683,259.354 301.668,259.583 301.800 C 259.813 301.931,260.000 301.892,260.000 301.711 C 260.000 301.531,260.525 301.449,261.167 301.528 C 261.825 301.610,262.333 301.526,262.333 301.337 C 262.333 301.151,262.174 301.000,261.980 301.000 C 261.786 301.000,261.713 300.861,261.818 300.691 C 261.923 300.522,262.457 300.440,263.004 300.509 C 263.552 300.578,264.000 300.483,264.000 300.298 C 264.000 300.112,264.148 300.052,264.330 300.164 C 264.520 300.282,264.574 300.145,264.457 299.842 C 264.338 299.530,264.096 299.421,263.862 299.575 C 263.646 299.717,263.757 299.569,264.111 299.245 C 264.724 298.683,264.774 298.683,265.234 299.245 C 265.499 299.569,265.621 299.646,265.505 299.417 C 265.376 299.163,265.519 299.000,265.869 299.000 C 266.186 299.000,266.353 298.909,266.242 298.798 C 265.775 298.330,266.830 297.736,267.500 298.090 C 268.097 298.405,268.119 298.384,267.709 297.888 C 267.308 297.401,267.338 297.333,267.959 297.333 C 268.351 297.333,268.667 297.120,268.667 296.856 C 268.667 296.593,268.969 296.282,269.338 296.165 C 269.708 296.048,269.930 295.824,269.833 295.667 C 269.631 295.340,270.857 294.872,271.261 295.122 C 271.408 295.213,271.550 294.994,271.577 294.636 C 271.604 294.278,271.496 294.066,271.336 294.165 C 271.177 294.264,270.937 294.154,270.803 293.922 C 270.669 293.690,270.679 293.607,270.824 293.738 C 270.969 293.869,271.382 293.819,271.742 293.626 C 272.315 293.320,272.369 293.363,272.176 293.971 C 272.046 294.380,272.102 294.667,272.311 294.667 C 272.507 294.667,272.649 294.554,272.627 294.417 C 272.480 293.482,272.699 293.249,273.156 293.853 C 273.717 294.594,273.830 294.261,273.332 293.332 C 273.109 292.914,273.109 292.639,273.332 292.501 C 273.516 292.387,273.676 292.565,273.688 292.897 C 273.709 293.509,274.311 292.422,274.525 291.386 C 274.678 290.640,274.999 290.514,275.010 291.194 C 275.020 291.790,275.043 291.794,275.362 291.247 C 275.549 290.925,275.611 290.513,275.498 290.331 C 275.386 290.149,275.612 290.000,276.000 290.000 C 276.388 290.000,276.617 289.855,276.508 289.679 C 276.398 289.502,276.614 289.052,276.988 288.679 C 277.361 288.305,277.667 287.866,277.667 287.702 C 277.667 287.539,277.884 287.321,278.149 287.219 C 278.415 287.118,278.883 286.539,279.190 285.934 C 281.802 280.782,292.422 273.539,294.244 275.667 C 294.924 276.461,295.613 276.527,295.883 275.825 C 296.030 275.440,296.187 275.407,296.526 275.688 C 296.877 275.979,296.947 275.924,296.852 275.429 C 296.763 274.966,297.123 274.590,298.205 274.016 C 299.015 273.586,299.605 273.160,299.514 273.070 C 299.424 272.979,299.134 273.084,298.871 273.302 C 298.501 273.609,298.337 273.609,298.145 273.298 C 297.997 273.059,298.038 272.984,298.244 273.111 C 298.435 273.229,298.770 273.111,298.988 272.848 C 299.287 272.488,299.596 272.450,300.239 272.694 C 300.708 272.873,301.172 272.939,301.268 272.843 C 301.365 272.746,301.298 272.667,301.119 272.667 C 300.940 272.667,300.503 272.431,300.147 272.142 C 299.791 271.853,299.710 271.726,299.967 271.860 C 300.254 272.008,300.619 271.856,300.910 271.468 C 301.375 270.846,301.383 270.846,301.276 271.465 C 301.216 271.814,301.391 272.162,301.667 272.241 C 302.071 272.357,302.080 272.323,301.714 272.067 C 301.393 271.842,301.371 271.683,301.637 271.519 C 301.842 271.391,301.926 271.149,301.821 270.981 C 301.717 270.812,301.855 270.760,302.128 270.865 C 302.418 270.976,302.540 271.274,302.422 271.582 C 302.289 271.931,302.352 272.028,302.609 271.869 C 302.974 271.643,303.563 269.160,303.394 268.559 C 303.352 268.407,303.458 268.371,303.630 268.477 C 303.802 268.584,304.006 268.557,304.084 268.419 C 304.161 268.280,304.178 268.354,304.122 268.583 C 303.995 269.107,304.878 269.133,305.198 268.615 C 305.359 268.355,305.284 268.320,304.968 268.506 C 304.711 268.657,304.777 268.465,305.116 268.078 C 305.472 267.672,305.627 267.191,305.484 266.938 C 305.288 266.593,305.328 266.585,305.670 266.903 C 306.024 267.230,306.025 267.401,305.678 267.819 C 305.236 268.352,305.224 268.345,306.750 268.467 C 306.979 268.485,307.129 268.312,307.083 268.083 C 307.037 267.854,307.150 267.667,307.333 267.667 C 307.517 267.667,307.667 267.508,307.667 267.314 C 307.667 267.120,307.532 267.044,307.368 267.145 C 307.204 267.247,306.989 267.118,306.889 266.859 C 306.668 266.283,307.391 265.957,308.023 266.347 C 308.316 266.528,308.693 266.445,309.053 266.118 C 309.681 265.550,309.525 264.667,308.798 264.667 C 308.542 264.667,308.333 264.513,308.333 264.326 C 308.333 264.139,307.921 263.804,307.417 263.583 C 306.912 263.361,306.425 263.082,306.333 262.961 C 305.216 261.492,296.715 260.064,293.500 260.805 M208.832 278.658 C 208.903 279.030,208.783 279.336,208.564 279.338 C 208.303 279.342,208.325 279.444,208.627 279.635 C 209.199 279.997,208.086 280.456,206.250 280.616 C 205.443 280.686,205.515 281.180,206.341 281.242 C 206.711 281.270,206.927 281.152,206.821 280.980 C 206.502 280.463,207.219 280.627,207.673 281.174 C 208.029 281.603,208.001 281.646,207.492 281.451 C 207.046 281.280,206.961 281.334,207.163 281.662 C 207.340 281.946,207.307 282.023,207.072 281.878 C 206.872 281.754,206.537 281.918,206.329 282.243 C 206.048 282.680,205.991 282.696,206.110 282.306 C 206.199 282.011,206.077 281.778,205.833 281.778 C 205.574 281.778,205.477 281.992,205.594 282.306 C 205.760 282.748,205.707 282.764,205.268 282.408 C 204.752 281.989,204.022 282.799,204.492 283.270 C 204.588 283.366,204.667 283.261,204.667 283.036 C 204.667 282.811,204.815 282.719,204.997 282.831 C 205.519 283.154,204.120 284.451,203.504 284.214 C 203.062 284.045,203.039 283.881,203.367 283.255 C 203.764 282.500,203.764 282.500,203.036 283.146 C 202.413 283.699,202.382 283.834,202.816 284.077 C 203.095 284.233,203.294 284.719,203.258 285.156 C 203.222 285.594,203.080 285.883,202.944 285.799 C 202.807 285.714,202.792 285.388,202.910 285.073 C 203.089 284.596,203.040 284.569,202.621 284.909 C 202.265 285.197,202.013 285.213,201.763 284.963 C 201.513 284.713,201.333 284.730,201.153 285.022 C 200.977 285.306,201.044 285.360,201.365 285.193 C 201.623 285.060,201.573 285.164,201.255 285.425 C 200.937 285.686,200.775 285.997,200.894 286.116 C 201.013 286.236,200.936 286.333,200.722 286.333 C 200.508 286.333,200.333 286.542,200.333 286.798 C 200.333 287.053,200.101 287.351,199.816 287.461 C 199.519 287.574,199.386 287.518,199.502 287.330 C 199.614 287.148,199.552 287.000,199.363 287.000 C 199.175 287.000,199.120 286.742,199.241 286.428 C 199.435 285.920,199.400 285.910,198.930 286.344 C 198.561 286.685,198.502 286.958,198.736 287.244 C 198.980 287.543,198.853 287.739,198.273 287.960 C 197.833 288.127,197.273 288.505,197.029 288.799 C 196.550 289.376,195.829 289.547,196.164 289.004 C 196.281 288.815,196.148 288.759,195.853 288.872 C 195.569 288.981,195.431 289.221,195.545 289.406 C 195.852 289.902,194.908 290.378,194.567 289.899 C 194.367 289.618,194.323 289.647,194.418 289.997 C 194.493 290.270,194.343 290.705,194.085 290.962 C 193.742 291.306,193.720 291.494,194.003 291.669 C 194.273 291.835,194.230 291.968,193.861 292.110 C 193.571 292.221,193.333 292.158,193.333 291.970 C 193.333 291.781,193.164 291.732,192.957 291.860 C 192.701 292.018,192.758 292.192,193.137 292.403 C 193.828 292.790,195.665 292.418,195.672 291.890 C 195.675 291.634,195.774 291.653,195.959 291.945 C 196.114 292.190,196.299 292.372,196.371 292.350 C 197.095 292.125,198.790 293.268,199.345 294.357 C 201.212 298.016,200.070 301.585,193.010 314.167 C 191.775 316.367,189.629 320.193,188.242 322.669 C 179.933 337.494,178.565 341.990,180.163 349.212 C 180.933 352.693,182.833 356.699,184.331 357.998 C 184.755 358.366,184.967 358.669,184.801 358.672 C 184.635 358.675,184.716 358.814,184.981 358.981 C 185.485 359.300,186.427 358.421,186.117 357.920 C 186.031 357.781,186.157 357.654,186.397 357.639 C 186.637 357.624,187.171 357.574,187.583 357.528 C 187.996 357.482,188.333 357.595,188.333 357.778 C 188.333 357.961,188.432 358.012,188.553 357.892 C 188.673 357.771,189.002 357.859,189.283 358.086 C 189.605 358.347,189.710 358.359,189.567 358.120 C 189.439 357.906,189.707 357.499,190.180 357.188 C 190.643 356.885,190.933 356.494,190.824 356.319 C 190.716 356.143,190.824 355.998,191.064 355.995 C 191.381 355.991,191.364 355.901,191.000 355.662 C 190.210 355.143,191.258 354.605,192.149 355.072 C 192.828 355.428,192.829 355.425,192.189 354.705 C 191.559 353.995,191.558 353.967,192.171 353.406 C 192.765 352.862,192.774 352.863,192.346 353.431 C 191.760 354.207,192.376 354.990,193.100 354.389 C 193.354 354.178,193.660 354.079,193.781 354.170 C 193.901 354.260,193.926 354.235,193.836 354.114 C 193.746 353.993,193.847 353.685,194.059 353.429 C 194.272 353.172,194.308 353.008,194.140 353.065 C 193.857 353.159,193.667 352.926,193.667 352.488 C 193.667 352.390,194.004 352.487,194.417 352.703 C 195.163 353.095,195.164 353.094,194.530 352.380 C 194.180 351.985,193.992 351.563,194.113 351.442 C 194.234 351.321,194.333 351.397,194.333 351.611 C 194.333 352.327,195.549 352.010,195.994 351.178 C 196.240 350.718,196.595 350.457,196.800 350.585 C 197.490 351.017,197.931 350.931,197.842 350.382 C 197.724 349.658,198.271 348.997,198.815 349.206 C 199.447 349.448,199.758 348.327,199.232 347.702 C 195.519 343.291,198.245 335.576,209.020 320.000 C 219.534 304.800,220.721 300.977,218.129 290.667 C 217.084 286.512,213.294 279.906,212.305 280.517 C 212.137 280.621,212.000 280.472,212.000 280.186 C 212.000 279.716,211.607 279.515,210.907 279.630 C 210.765 279.654,210.560 279.443,210.452 279.161 C 210.300 278.767,210.150 278.737,209.794 279.032 C 209.435 279.330,209.333 279.300,209.333 278.894 C 209.333 278.607,209.191 278.285,209.017 278.177 C 208.844 278.070,208.760 278.286,208.832 278.658 M196.067 290.822 C 196.161 290.728,196.447 290.917,196.702 291.242 C 197.107 291.758,197.103 291.786,196.667 291.462 C 196.392 291.258,195.729 291.154,195.193 291.231 C 194.341 291.354,194.274 291.307,194.654 290.848 C 194.955 290.486,195.212 290.428,195.492 290.660 C 195.713 290.844,195.972 290.917,196.067 290.822 M165.500 312.333 C 165.133 312.491,165.021 312.630,165.250 312.643 C 165.479 312.656,165.667 312.826,165.667 313.020 C 165.667 313.214,165.534 313.291,165.371 313.190 C 165.209 313.090,164.986 313.343,164.876 313.754 C 164.409 315.495,164.716 315.354,165.974 313.250 C 166.738 311.971,166.667 311.832,165.500 312.333 M163.304 312.692 C 162.906 312.944,162.911 312.991,163.333 312.996 C 164.105 313.005,164.039 314.816,163.248 315.309 C 162.864 315.549,162.688 315.569,162.818 315.358 C 162.940 315.161,162.818 315.000,162.547 315.000 C 162.277 315.000,161.966 314.813,161.857 314.583 C 161.748 314.354,161.719 314.493,161.792 314.892 C 161.886 315.404,161.789 315.565,161.464 315.440 C 161.211 315.343,161.101 315.106,161.220 314.914 C 161.350 314.703,161.275 314.663,161.030 314.815 C 160.722 315.005,160.752 315.209,161.156 315.655 C 161.653 316.204,161.633 316.238,160.867 316.154 C 160.393 316.102,159.806 316.328,159.478 316.691 C 159.166 317.035,158.758 317.223,158.571 317.107 C 158.374 316.986,158.332 317.062,158.472 317.287 C 158.604 317.502,158.835 317.602,158.985 317.509 C 159.135 317.416,159.443 317.564,159.670 317.837 C 159.896 318.110,160.026 318.347,159.957 318.364 C 159.889 318.381,159.324 318.466,158.702 318.555 C 157.495 318.725,156.546 319.419,156.933 319.847 C 157.061 319.989,156.892 320.007,156.556 319.886 C 156.021 319.694,155.965 319.813,156.106 320.855 C 156.194 321.509,156.169 321.946,156.050 321.827 C 155.831 321.609,155.784 321.422,155.708 320.476 C 155.672 320.017,155.596 320.023,155.091 320.528 C 154.546 321.074,154.503 321.062,154.291 320.302 C 154.095 319.601,154.062 319.586,154.033 320.186 C 154.015 320.564,154.220 321.164,154.489 321.520 C 154.759 321.875,154.981 322.317,154.984 322.500 C 154.987 322.683,154.844 322.608,154.667 322.333 C 154.451 322.000,154.342 321.972,154.338 322.250 C 154.336 322.479,154.208 322.667,154.056 322.667 C 153.903 322.667,153.778 322.448,153.778 322.181 C 153.778 321.914,153.926 321.788,154.107 321.899 C 154.292 322.014,154.331 321.933,154.198 321.717 C 154.024 321.437,153.778 321.429,153.292 321.689 C 152.789 321.958,152.713 322.154,152.986 322.483 C 153.261 322.814,153.178 322.963,152.639 323.104 C 151.914 323.293,151.892 324.020,152.604 324.257 C 152.860 324.342,152.921 324.182,152.777 323.807 C 152.624 323.409,152.677 323.301,152.943 323.465 C 153.529 323.827,153.415 324.266,152.626 324.688 C 152.196 324.919,152.002 324.932,152.132 324.723 C 152.249 324.534,152.186 324.281,151.992 324.162 C 151.798 324.042,151.739 323.619,151.861 323.222 C 151.983 322.825,151.965 322.611,151.822 322.747 C 151.679 322.883,151.373 322.838,151.144 322.648 C 150.854 322.407,150.658 322.410,150.505 322.659 C 150.383 322.856,150.407 322.975,150.559 322.925 C 150.814 322.840,151.000 323.088,151.000 323.512 C 151.000 323.610,150.662 323.522,150.250 323.315 C 149.556 322.969,149.563 322.999,150.340 323.720 C 150.803 324.149,151.035 324.387,150.857 324.250 C 150.406 323.902,149.922 323.937,150.147 324.301 C 150.372 324.665,148.494 325.372,148.142 325.056 C 148.005 324.934,147.991 325.004,148.110 325.212 C 148.319 325.578,147.854 326.158,147.167 326.388 C 146.983 326.450,146.833 326.876,146.833 327.336 C 146.833 328.051,146.677 328.175,145.750 328.199 C 145.154 328.214,144.667 328.072,144.667 327.883 C 144.667 327.694,144.446 327.830,144.177 328.186 C 143.809 328.673,143.685 328.710,143.677 328.338 C 143.671 328.066,143.365 328.406,142.996 329.094 C 142.356 330.289,142.351 330.384,142.900 331.222 C 143.468 332.088,143.466 332.094,142.759 331.716 C 141.897 331.255,141.561 331.227,141.816 331.638 C 141.919 331.806,141.875 331.993,141.716 332.055 C 140.598 332.489,130.198 354.933,130.183 356.946 C 130.162 359.634,131.103 360.667,133.573 360.667 C 137.132 360.667,137.485 360.237,147.675 343.500 C 163.724 317.138,164.427 315.924,164.473 314.500 C 164.522 312.997,164.028 312.233,163.304 312.692 M162.646 313.859 C 162.152 314.453,162.822 315.154,163.484 314.736 C 163.686 314.609,163.580 314.465,163.232 314.397 C 162.754 314.302,162.712 314.181,163.023 313.805 C 163.239 313.546,163.340 313.333,163.248 313.333 C 163.157 313.333,162.885 313.570,162.646 313.859 M161.278 317.041 C 161.033 317.196,160.458 317.305,160.000 317.283 C 159.219 317.245,159.213 317.234,159.917 317.098 C 160.329 317.019,160.667 316.819,160.667 316.654 C 160.667 316.489,160.904 316.445,161.195 316.557 C 161.620 316.720,161.636 316.814,161.278 317.041 M148.450 326.333 C 147.918 327.400,147.000 327.691,147.000 326.793 C 147.000 326.330,147.084 326.316,147.583 326.698 C 147.904 326.944,148.054 327.012,147.916 326.849 C 147.778 326.687,147.914 326.279,148.218 325.944 C 148.982 325.099,149.028 325.175,148.450 326.333 M196.318 351.083 C 196.281 351.221,196.229 351.446,196.203 351.583 C 196.178 351.721,196.037 352.021,195.892 352.250 C 195.720 352.521,195.816 352.667,196.167 352.667 C 196.463 352.667,196.613 352.517,196.500 352.333 C 196.311 352.028,196.767 351.852,197.441 351.969 C 197.593 351.995,197.620 351.860,197.502 351.669 C 197.384 351.479,197.160 351.401,197.005 351.497 C 196.850 351.592,196.648 351.482,196.555 351.252 C 196.462 351.022,196.355 350.946,196.318 351.083 M190.325 356.808 C 189.883 357.250,189.608 356.873,189.872 356.186 C 190.045 355.734,190.151 355.705,190.366 356.053 C 190.516 356.296,190.498 356.636,190.325 356.808 M186.508 358.540 C 185.778 359.270,186.171 359.584,186.942 358.886 C 187.279 358.581,187.678 358.445,187.830 358.583 C 187.983 358.721,187.999 358.646,187.867 358.417 C 187.545 357.857,187.156 357.892,186.508 358.540 " stroke="none" fill="#2280aa" fill-rule="evenodd"></path><path id="path4" d="M327.000 126.888 C 325.442 127.175,324.056 127.580,323.922 127.788 C 323.740 128.069,323.676 128.067,323.672 127.781 C 323.669 127.546,323.374 127.472,322.917 127.591 C 322.061 127.815,321.333 128.451,321.333 128.976 C 321.333 129.173,321.127 129.333,320.874 129.333 C 320.621 129.333,320.164 129.671,319.857 130.083 L 319.300 130.833 319.452 130.084 C 319.536 129.671,319.464 129.248,319.294 129.142 C 319.123 129.037,319.005 129.074,319.031 129.225 C 319.153 129.926,318.958 130.333,318.500 130.333 C 318.225 130.333,318.000 130.479,318.000 130.656 C 318.000 130.834,318.262 130.897,318.583 130.798 C 319.128 130.628,319.128 130.641,318.576 130.995 C 318.252 131.204,318.073 131.515,318.179 131.687 C 318.286 131.859,318.230 132.000,318.055 132.000 C 317.881 132.000,317.652 131.775,317.546 131.500 C 317.248 130.723,316.706 130.912,316.917 131.719 C 317.074 132.320,316.991 132.409,316.411 132.257 C 315.924 132.130,315.767 132.208,315.886 132.517 C 315.979 132.759,316.305 132.881,316.611 132.787 C 316.975 132.675,316.937 132.759,316.500 133.030 C 316.133 133.257,315.733 133.595,315.610 133.781 C 315.487 133.967,315.112 134.158,314.777 134.205 C 314.267 134.276,314.294 134.185,314.946 133.651 C 315.692 133.039,315.700 132.986,315.136 132.423 C 314.572 131.859,314.555 131.867,314.745 132.597 C 314.913 133.240,314.790 133.392,313.972 133.556 C 313.373 133.675,313.002 133.958,313.005 134.292 C 313.009 134.755,313.055 134.763,313.320 134.343 C 313.491 134.073,313.729 133.951,313.849 134.071 C 314.244 134.467,313.604 135.061,312.962 134.894 C 312.419 134.752,312.214 134.982,312.268 135.672 C 312.275 135.767,311.752 136.191,311.104 136.616 C 310.457 137.040,310.028 137.225,310.150 137.027 C 310.273 136.829,310.214 136.667,310.020 136.667 C 309.826 136.667,309.667 136.892,309.667 137.167 C 309.667 137.611,309.470 137.720,308.803 137.644 C 308.695 137.632,308.416 137.882,308.185 138.199 C 307.906 138.579,307.549 138.696,307.132 138.543 C 306.752 138.404,306.898 138.644,307.500 139.145 C 308.050 139.603,308.688 139.913,308.917 139.833 C 309.146 139.753,309.333 139.821,309.333 139.984 C 309.333 141.102,315.071 141.845,319.932 141.357 C 329.280 140.417,329.487 145.777,320.699 161.142 C 319.642 162.989,318.055 165.850,317.171 167.500 C 316.288 169.150,314.770 171.862,313.797 173.526 C 310.272 179.557,307.565 185.845,306.976 189.370 C 306.362 193.045,307.694 201.176,308.981 201.605 C 309.175 201.669,309.333 201.991,309.333 202.320 C 309.333 202.649,309.586 203.124,309.896 203.376 C 310.388 203.776,310.431 203.761,310.240 203.250 C 310.119 202.929,310.166 202.667,310.344 202.667 C 310.521 202.667,310.667 202.460,310.667 202.207 C 310.667 201.955,310.894 201.560,311.171 201.330 C 311.575 200.995,311.594 200.804,311.270 200.372 C 310.930 199.920,310.940 199.900,311.333 200.250 C 311.590 200.479,312.008 200.667,312.261 200.667 C 312.515 200.667,312.658 200.479,312.580 200.250 C 312.380 199.663,314.014 198.334,314.936 198.334 C 315.360 198.334,315.614 198.482,315.502 198.663 C 315.390 198.845,315.509 198.911,315.769 198.812 C 316.028 198.713,316.430 198.276,316.662 197.842 C 316.931 197.339,317.270 197.125,317.597 197.250 C 317.972 197.394,318.033 197.320,317.824 196.973 C 317.580 196.569,317.621 196.567,318.103 196.957 C 318.656 197.407,318.733 197.338,318.803 196.333 C 318.823 196.041,319.137 195.849,319.558 195.871 C 320.032 195.896,320.219 195.756,320.105 195.461 C 319.907 194.944,318.401 194.954,317.667 195.477 C 317.232 195.787,317.227 195.757,317.628 195.246 C 317.881 194.922,318.256 194.678,318.461 194.702 C 319.613 194.838,320.165 194.655,319.667 194.303 C 319.222 193.989,319.222 193.964,319.667 194.086 C 319.942 194.161,320.167 194.435,320.167 194.694 C 320.168 195.013,320.562 195.170,321.379 195.178 C 322.232 195.186,322.542 195.063,322.426 194.762 C 322.336 194.526,322.102 194.333,321.906 194.333 C 321.711 194.333,321.877 193.986,322.275 193.562 C 322.674 193.138,323.000 192.618,323.000 192.407 C 323.000 192.196,323.288 191.869,323.640 191.681 C 324.230 191.365,324.604 190.372,324.816 188.557 C 325.225 185.046,328.832 178.056,333.960 170.833 C 344.409 156.118,346.449 151.575,345.675 144.742 C 344.106 130.890,337.835 124.895,327.000 126.888 M320.140 127.854 C 320.733 128.447,321.000 128.463,321.000 127.904 C 321.000 127.668,320.698 127.452,320.330 127.425 C 319.747 127.381,319.722 127.437,320.140 127.854 M319.673 128.550 C 319.943 128.984,320.319 129.190,320.626 129.072 C 321.058 128.906,321.061 128.855,320.650 128.727 C 320.384 128.645,319.955 128.410,319.696 128.205 C 319.295 127.888,319.291 127.938,319.673 128.550 M308.907 138.712 C 308.584 138.893,308.419 139.219,308.542 139.437 C 308.676 139.675,308.579 139.658,308.299 139.394 C 307.902 139.020,307.929 138.885,308.476 138.481 C 308.829 138.220,309.203 138.092,309.306 138.195 C 309.410 138.299,309.230 138.531,308.907 138.712 M305.317 140.017 C 304.927 140.264,304.922 140.324,305.291 140.328 C 305.660 140.332,305.668 140.430,305.333 140.833 C 305.105 141.108,305.051 141.333,305.212 141.333 C 305.633 141.333,306.370 140.062,306.061 139.871 C 305.918 139.783,305.584 139.848,305.317 140.017 M303.490 141.389 C 303.666 141.885,302.901 143.054,302.454 142.973 C 301.797 142.854,301.306 143.020,301.481 143.302 C 301.583 143.468,301.950 143.530,302.296 143.440 C 302.642 143.349,303.008 143.410,303.110 143.575 C 303.301 143.884,301.233 143.827,300.382 143.501 C 299.992 143.351,299.982 143.410,300.324 143.822 C 300.554 144.099,300.913 144.224,301.121 144.099 C 301.329 143.974,301.294 144.126,301.043 144.436 C 300.547 145.047,300.165 145.209,300.500 144.667 C 300.613 144.483,300.481 144.333,300.206 144.333 C 299.603 144.333,299.189 144.896,299.672 145.057 C 299.861 145.120,299.690 145.451,299.292 145.792 L 298.568 146.412 298.783 145.289 C 298.936 144.497,298.903 144.314,298.671 144.667 C 298.491 144.942,298.341 145.588,298.338 146.103 C 298.335 146.681,298.197 146.955,297.977 146.819 C 297.781 146.698,297.715 146.355,297.829 146.057 C 297.965 145.704,297.739 145.795,297.182 146.319 C 296.615 146.851,296.383 147.354,296.494 147.811 C 296.586 148.190,296.574 148.313,296.469 148.083 C 296.364 147.854,296.131 147.667,295.953 147.667 C 295.774 147.667,295.720 147.817,295.833 148.000 C 295.947 148.183,295.797 148.333,295.500 148.333 C 295.203 148.333,295.053 148.483,295.167 148.667 C 295.358 148.976,294.892 149.151,294.209 149.026 C 294.049 148.997,294.007 149.204,294.115 149.486 C 294.339 150.070,293.183 150.232,292.833 149.667 C 292.720 149.483,292.449 149.338,292.230 149.344 C 292.012 149.351,292.208 149.675,292.667 150.066 C 293.196 150.518,293.287 150.700,292.917 150.566 C 292.525 150.424,292.333 150.520,292.333 150.858 C 292.333 151.154,292.092 151.322,291.750 151.265 C 291.328 151.194,291.199 151.351,291.282 151.833 C 291.345 152.200,291.282 152.387,291.142 152.249 C 291.002 152.111,290.613 152.247,290.277 152.551 C 289.894 152.897,289.667 152.956,289.667 152.708 C 289.667 152.490,289.892 152.226,290.167 152.121 C 290.442 152.015,290.667 151.686,290.667 151.390 C 290.667 150.983,290.539 151.033,290.144 151.598 C 289.856 152.009,289.482 152.258,289.312 152.153 C 289.138 152.046,289.153 152.360,289.345 152.864 C 289.631 153.615,289.611 153.702,289.230 153.386 C 288.978 153.177,288.669 153.109,288.542 153.236 C 288.416 153.362,288.655 153.667,289.073 153.913 L 289.833 154.361 289.000 154.136 C 288.542 154.012,288.080 153.776,287.974 153.612 C 287.869 153.448,287.603 153.708,287.383 154.190 C 287.164 154.671,286.800 154.994,286.574 154.908 C 286.348 154.821,285.971 154.956,285.735 155.208 C 285.333 155.639,285.467 155.811,286.115 155.696 C 286.269 155.668,286.336 155.825,286.263 156.044 C 286.190 156.263,285.875 156.479,285.564 156.525 C 285.252 156.571,285.081 156.471,285.185 156.304 C 285.288 156.137,285.230 156.000,285.055 156.000 C 284.881 156.000,284.646 156.241,284.533 156.535 C 284.418 156.833,284.113 156.987,283.841 156.882 C 283.574 156.780,283.265 156.842,283.154 157.020 C 283.044 157.198,282.791 157.244,282.592 157.121 C 282.376 156.987,282.326 157.052,282.468 157.282 C 282.599 157.493,282.547 157.667,282.353 157.667 C 282.159 157.667,282.000 157.817,282.000 158.000 C 282.000 158.183,282.234 158.333,282.520 158.333 C 282.805 158.333,282.953 158.194,282.848 158.023 C 282.742 157.852,282.793 157.628,282.960 157.525 C 283.127 157.422,283.345 157.549,283.444 157.808 C 283.634 158.302,282.816 158.824,282.050 158.697 C 281.802 158.656,281.692 158.772,281.805 158.955 C 281.918 159.138,281.835 159.396,281.621 159.528 C 281.386 159.674,281.319 159.626,281.454 159.408 C 281.734 158.955,281.128 158.548,280.631 158.855 C 280.374 159.014,280.399 159.174,280.714 159.385 C 281.012 159.584,280.825 159.626,280.167 159.508 C 279.617 159.410,279.354 159.418,279.583 159.526 C 280.081 159.760,280.133 160.545,279.670 160.831 C 279.475 160.952,279.426 160.791,279.551 160.434 C 279.751 159.863,279.731 159.862,279.146 160.413 C 278.548 160.977,278.549 161.007,279.182 161.480 C 279.820 161.957,279.819 161.963,279.130 161.790 C 278.556 161.646,278.239 161.939,277.404 163.390 C 276.842 164.367,275.929 165.683,275.377 166.313 C 274.824 166.944,274.462 167.604,274.571 167.781 C 274.680 167.958,274.634 168.023,274.468 167.925 C 274.302 167.827,272.321 169.961,270.066 172.666 C 261.090 183.432,252.255 191.414,247.060 193.449 C 244.399 194.492,239.999 193.845,239.492 192.337 C 239.398 192.060,239.015 191.458,238.639 191.000 C 237.958 190.170,237.957 190.170,238.347 190.962 C 238.718 191.715,238.693 191.745,237.861 191.537 C 237.013 191.324,237.003 191.338,237.575 191.938 C 237.980 192.364,238.298 192.459,238.583 192.239 C 239.353 191.646,239.009 192.205,238.137 192.964 L 237.273 193.715 237.488 192.941 L 237.702 192.167 237.059 192.902 C 236.705 193.307,236.322 193.545,236.208 193.430 C 236.094 193.316,236.000 193.406,236.000 193.631 C 236.000 193.858,235.827 193.932,235.610 193.798 C 235.350 193.638,235.289 193.737,235.426 194.095 C 235.579 194.492,235.491 194.578,235.092 194.425 C 234.692 194.272,234.605 194.358,234.758 194.758 C 234.912 195.158,234.825 195.245,234.428 195.093 C 234.086 194.962,233.973 195.020,234.117 195.254 C 234.242 195.455,234.169 195.729,233.954 195.862 C 233.699 196.019,233.653 195.958,233.821 195.686 C 233.999 195.399,233.886 195.306,233.456 195.388 C 233.114 195.453,232.785 195.843,232.727 196.253 C 232.605 197.110,232.635 197.098,231.577 196.696 C 231.020 196.484,230.767 196.510,230.742 196.779 C 230.599 198.314,229.927 199.357,229.513 198.687 C 229.387 198.484,229.463 198.358,229.681 198.408 C 229.899 198.459,230.122 198.237,230.176 197.915 C 230.240 197.538,230.137 197.418,229.887 197.577 C 229.674 197.712,229.350 197.825,229.167 197.828 C 228.984 197.831,228.819 198.058,228.801 198.333 C 228.697 199.905,228.650 200.029,228.250 199.779 C 227.488 199.304,226.648 199.328,226.454 199.832 C 226.349 200.106,226.129 200.247,225.965 200.145 C 225.431 199.815,225.649 200.355,226.500 201.470 C 226.958 202.071,227.333 202.719,227.333 202.910 C 227.333 203.742,230.606 206.677,232.500 207.544 C 239.178 210.602,247.745 207.915,257.909 199.575 L 260.613 197.356 259.306 200.144 C 255.426 208.424,262.135 211.989,267.295 204.389 C 269.460 201.201,282.213 180.234,294.091 160.333 C 298.851 152.358,303.034 145.418,303.388 144.910 C 303.741 144.401,303.925 143.816,303.797 143.608 C 303.669 143.400,303.703 143.317,303.874 143.422 C 304.045 143.528,304.436 143.176,304.743 142.640 C 305.051 142.105,305.159 141.667,304.984 141.667 C 304.810 141.667,304.667 141.842,304.667 142.056 C 304.667 142.269,304.554 142.332,304.417 142.194 C 304.279 142.057,304.167 141.782,304.167 141.583 C 304.167 141.385,303.979 141.160,303.750 141.083 C 303.514 141.005,303.401 141.138,303.490 141.389 M323.444 192.444 C 323.444 192.689,323.619 192.889,323.833 192.889 C 324.047 192.889,324.222 192.689,324.222 192.444 C 324.222 192.200,324.047 192.000,323.833 192.000 C 323.619 192.000,323.444 192.200,323.444 192.444 M313.552 199.276 C 312.916 199.979,312.849 200.333,313.353 200.333 C 313.547 200.333,313.617 200.190,313.509 200.014 C 313.394 199.829,313.735 199.749,314.323 199.824 C 314.879 199.894,315.333 199.796,315.333 199.607 C 315.333 199.417,315.092 199.355,314.796 199.468 C 314.412 199.616,314.314 199.531,314.452 199.170 C 314.718 198.479,314.220 198.537,313.552 199.276 M227.464 200.194 C 227.733 200.894,227.721 201.000,227.372 201.000 C 227.210 201.000,226.999 200.700,226.903 200.333 C 226.698 199.546,227.171 199.429,227.464 200.194 M179.654 248.324 C 172.217 249.676,160.917 265.707,160.851 275.000 C 160.826 278.527,161.481 280.511,163.231 282.212 C 165.022 283.952,165.170 283.532,161.750 286.404 C 152.874 293.859,129.147 308.000,125.515 308.000 C 125.485 308.000,125.593 306.837,125.754 305.417 C 126.690 297.194,124.615 283.660,122.275 282.722 C 122.121 282.660,122.081 282.473,122.184 282.305 C 122.288 282.137,122.214 282.000,122.020 282.000 C 121.826 282.000,121.684 281.887,121.706 281.750 C 121.812 281.081,121.616 280.959,121.103 281.376 C 120.792 281.627,120.633 281.676,120.747 281.484 C 120.862 281.292,120.802 280.917,120.613 280.651 C 120.334 280.256,120.305 280.274,120.458 280.750 C 120.561 281.071,120.495 281.333,120.311 281.333 C 120.101 281.333,120.117 281.596,120.355 282.040 C 120.629 282.552,120.630 282.684,120.361 282.517 C 119.461 281.961,118.204 281.942,118.660 282.492 C 118.899 282.780,118.999 283.112,118.881 283.230 C 118.763 283.348,118.667 283.264,118.667 283.044 C 118.667 282.590,117.350 283.151,116.942 283.778 C 116.792 284.010,116.554 283.988,116.222 283.712 C 115.827 283.385,115.675 283.389,115.476 283.734 C 115.339 283.972,115.349 284.055,115.499 283.920 C 115.649 283.784,115.976 283.842,116.226 284.049 C 116.571 284.335,116.829 284.289,117.306 283.858 C 117.778 283.431,117.996 283.391,118.185 283.696 C 118.357 283.975,118.297 284.017,117.995 283.830 C 117.687 283.640,117.610 283.704,117.740 284.044 C 117.863 284.364,117.697 284.548,117.254 284.581 C 116.538 284.635,115.190 285.858,115.593 286.088 C 115.725 286.163,115.627 286.171,115.374 286.106 C 115.122 286.041,114.732 286.239,114.509 286.545 C 114.187 286.985,114.046 287.010,113.833 286.666 C 113.663 286.392,113.695 286.311,113.917 286.449 C 114.147 286.591,114.199 286.403,114.066 285.917 C 113.897 285.302,113.838 285.273,113.738 285.754 C 113.671 286.077,113.510 286.276,113.380 286.195 C 113.249 286.115,113.143 286.327,113.143 286.667 C 113.143 287.006,113.247 287.220,113.374 287.142 C 113.501 287.063,113.526 287.298,113.431 287.662 C 113.329 288.053,113.102 288.229,112.879 288.089 C 112.233 287.686,110.966 287.724,111.308 288.136 C 111.497 288.364,111.433 288.746,111.139 289.148 C 110.802 289.608,110.665 289.656,110.662 289.314 C 110.657 288.915,110.607 288.911,110.369 289.288 C 110.126 289.671,110.053 289.671,109.900 289.288 C 109.799 289.035,109.694 289.203,109.663 289.667 C 109.613 290.406,109.570 290.374,109.284 289.380 C 108.728 287.448,108.611 288.485,109.134 290.710 C 109.965 294.250,109.659 304.897,108.603 309.166 L 107.779 312.500 106.139 312.764 C 99.278 313.871,91.351 311.445,87.445 307.043 C 86.811 306.329,86.730 306.307,86.778 306.865 C 86.809 307.214,86.958 307.592,87.111 307.704 C 87.264 307.816,87.152 307.998,86.861 308.110 C 86.571 308.221,86.333 308.167,86.333 307.990 C 86.333 307.812,86.174 307.667,85.980 307.667 C 85.786 307.667,85.710 307.800,85.810 307.962 C 85.910 308.125,85.769 308.443,85.496 308.670 C 85.223 308.896,84.995 308.951,84.990 308.791 C 84.984 308.631,84.817 308.780,84.618 309.123 C 84.343 309.595,84.366 309.816,84.711 310.035 C 85.014 310.226,85.033 310.325,84.770 310.328 C 84.551 310.331,84.280 310.183,84.167 310.000 C 84.053 309.817,83.726 309.667,83.440 309.667 C 83.020 309.667,82.997 309.762,83.322 310.153 C 83.747 310.665,82.797 310.660,81.965 310.145 C 81.703 309.983,81.704 310.113,81.968 310.608 C 82.292 311.212,82.251 311.279,81.638 311.161 C 81.142 311.066,80.991 311.163,81.119 311.496 C 81.244 311.822,81.134 311.903,80.762 311.760 C 80.404 311.622,80.304 311.684,80.465 311.943 C 80.598 312.158,80.547 312.333,80.353 312.333 C 80.159 312.333,80.000 312.183,80.000 312.000 C 80.000 311.817,79.827 311.667,79.615 311.667 C 79.401 311.667,79.511 311.988,79.865 312.391 C 80.214 312.789,80.313 313.005,80.083 312.871 C 79.854 312.737,79.667 312.765,79.667 312.934 C 79.667 313.103,79.292 313.169,78.833 313.082 C 78.359 312.991,78.000 313.078,78.000 313.284 C 78.000 313.483,78.188 313.600,78.417 313.544 C 78.646 313.488,78.720 313.506,78.581 313.583 C 78.443 313.660,78.413 313.859,78.515 314.025 C 78.618 314.190,78.469 314.236,78.184 314.127 C 77.899 314.018,77.667 314.089,77.667 314.286 C 77.667 314.482,77.367 314.804,77.000 315.000 C 76.548 315.242,76.333 315.246,76.333 315.012 C 76.333 314.822,76.544 314.667,76.802 314.667 C 77.105 314.667,77.210 314.433,77.099 314.008 C 76.932 313.369,76.909 313.372,76.330 314.087 C 75.602 314.986,75.850 315.404,79.285 319.057 C 84.934 325.063,90.076 327.137,98.837 326.941 C 101.494 326.882,103.667 326.868,103.667 326.910 C 103.664 327.380,100.325 334.316,99.160 336.274 C 90.372 351.032,76.028 353.524,71.332 341.108 C 69.793 337.039,68.815 324.303,69.775 320.842 C 70.047 319.862,70.042 319.858,69.372 320.465 C 68.998 320.803,68.725 321.229,68.763 321.412 C 68.802 321.595,68.571 321.789,68.250 321.843 C 67.498 321.969,67.507 321.936,68.518 320.845 C 68.987 320.339,69.285 319.841,69.182 319.737 C 68.943 319.498,67.667 320.848,67.667 321.339 C 67.667 321.541,67.538 321.627,67.381 321.530 C 67.225 321.433,67.144 321.761,67.203 322.260 C 67.261 322.759,67.228 322.902,67.129 322.578 C 66.966 322.045,66.891 322.061,66.339 322.743 C 65.641 323.604,65.755 324.063,66.594 323.774 C 67.042 323.620,67.021 323.692,66.500 324.106 C 65.920 324.567,65.785 324.573,65.463 324.151 C 65.051 323.612,64.175 323.474,64.500 324.000 C 64.613 324.183,64.472 324.333,64.186 324.333 C 63.901 324.333,63.667 324.492,63.667 324.686 C 63.667 324.880,63.815 324.948,63.996 324.836 C 64.184 324.719,64.241 324.852,64.129 325.145 C 63.966 325.571,63.827 325.531,63.311 324.912 C 62.562 324.015,62.466 324.384,63.169 325.456 C 63.605 326.122,63.606 326.222,63.183 326.222 C 62.915 326.222,62.773 326.097,62.868 325.944 C 62.962 325.792,62.805 325.667,62.520 325.667 C 62.234 325.667,62.000 325.883,62.000 326.147 C 62.000 326.411,61.852 326.719,61.670 326.831 C 61.485 326.945,61.424 326.819,61.530 326.543 C 61.704 326.089,61.571 326.062,60.376 326.308 C 60.308 326.322,60.438 326.558,60.667 326.833 C 60.957 327.183,60.969 327.346,60.707 327.375 C 60.256 327.425,59.727 327.553,59.500 327.667 C 59.408 327.712,59.183 327.787,59.000 327.833 C 58.817 327.879,58.554 327.953,58.417 327.998 C 58.279 328.042,58.070 328.066,57.951 328.051 C 57.832 328.035,57.812 328.316,57.905 328.674 C 58.102 329.426,58.654 329.232,58.693 328.397 C 58.709 328.047,58.783 327.992,58.888 328.252 C 58.981 328.482,59.180 328.595,59.331 328.502 C 59.481 328.409,59.517 328.666,59.410 329.074 C 59.304 329.482,59.155 329.632,59.080 329.406 C 58.990 329.137,58.745 329.241,58.366 329.709 C 57.858 330.336,57.691 330.371,56.978 329.999 C 56.532 329.767,56.278 329.695,56.414 329.841 C 56.738 330.187,56.017 331.050,55.613 330.800 C 55.432 330.688,55.483 330.375,55.734 330.054 C 56.118 329.563,56.103 329.550,55.603 329.941 C 55.038 330.383,55.122 331.333,55.726 331.333 C 55.903 331.333,55.813 331.568,55.526 331.855 C 55.240 332.141,54.855 332.283,54.671 332.169 C 54.487 332.055,54.150 332.371,53.922 332.871 C 53.619 333.537,53.609 333.814,53.886 333.906 C 54.122 333.985,54.208 334.570,54.115 335.463 C 53.916 337.373,55.118 343.128,56.466 346.717 C 61.154 359.198,72.377 364.863,87.047 362.152 C 91.596 361.311,97.653 359.031,98.412 357.874 C 98.546 357.668,98.659 357.609,98.662 357.743 C 98.664 357.876,99.307 357.576,100.089 357.076 C 109.789 350.874,117.692 339.450,122.048 325.333 C 123.327 321.190,123.241 321.308,125.503 320.555 C 129.490 319.226,140.021 313.387,145.667 309.375 C 146.492 308.789,147.748 307.926,148.458 307.458 C 149.168 306.989,151.331 305.392,153.265 303.909 C 155.199 302.425,156.709 301.351,156.622 301.522 C 156.400 301.955,146.115 322.829,145.225 324.654 C 144.826 325.472,144.548 326.349,144.606 326.604 C 144.664 326.859,144.568 326.979,144.394 326.871 C 144.219 326.763,143.986 327.010,143.876 327.420 C 143.553 328.624,143.654 328.879,144.177 328.186 C 144.446 327.830,144.667 327.694,144.667 327.883 C 144.667 328.072,145.154 328.214,145.750 328.199 C 146.701 328.175,146.833 328.060,146.833 327.261 C 146.833 326.760,146.923 326.384,147.032 326.425 C 147.433 326.576,148.319 325.579,148.110 325.212 C 147.991 325.004,148.005 324.934,148.142 325.056 C 148.494 325.372,150.372 324.665,150.147 324.301 C 149.872 323.856,150.461 323.936,151.001 324.417 C 151.395 324.768,151.403 324.747,151.051 324.280 C 150.764 323.898,150.745 323.658,150.989 323.507 C 151.184 323.386,151.256 323.145,151.149 322.972 C 151.042 322.798,150.791 322.756,150.592 322.879 C 150.371 323.016,150.327 322.947,150.478 322.702 C 150.652 322.420,150.850 322.404,151.144 322.648 C 151.373 322.838,151.679 322.883,151.822 322.747 C 151.965 322.611,151.983 322.825,151.861 323.222 C 151.739 323.619,151.798 324.042,151.992 324.162 C 152.186 324.281,152.249 324.534,152.132 324.723 C 152.002 324.932,152.196 324.919,152.626 324.688 C 153.415 324.266,153.529 323.827,152.943 323.465 C 152.677 323.301,152.624 323.409,152.777 323.807 C 152.921 324.182,152.860 324.342,152.604 324.257 C 151.892 324.020,151.914 323.293,152.639 323.104 C 153.178 322.963,153.261 322.814,152.986 322.483 C 152.713 322.154,152.789 321.958,153.293 321.688 C 153.870 321.379,153.945 321.422,153.834 321.998 C 153.763 322.366,153.846 322.667,154.019 322.667 C 154.192 322.667,154.336 322.479,154.338 322.250 C 154.342 321.972,154.451 322.000,154.667 322.333 C 154.844 322.608,154.987 322.683,154.984 322.500 C 154.981 322.317,154.759 321.875,154.489 321.520 C 154.220 321.164,154.015 320.564,154.033 320.186 C 154.062 319.586,154.095 319.601,154.291 320.302 C 154.503 321.062,154.546 321.074,155.091 320.528 C 155.596 320.023,155.672 320.017,155.708 320.476 C 155.784 321.422,155.831 321.609,156.050 321.827 C 156.169 321.946,156.194 321.509,156.106 320.855 C 155.965 319.813,156.021 319.694,156.556 319.886 C 156.892 320.007,157.061 319.989,156.933 319.847 C 156.546 319.419,157.495 318.725,158.702 318.555 C 159.324 318.466,159.889 318.381,159.957 318.364 C 160.026 318.347,159.896 318.110,159.670 317.837 C 159.443 317.564,159.135 317.416,158.985 317.509 C 158.835 317.602,158.604 317.502,158.472 317.287 C 158.332 317.062,158.374 316.986,158.571 317.107 C 158.758 317.223,159.166 317.035,159.478 316.691 C 159.806 316.328,160.393 316.102,160.867 316.154 C 161.633 316.238,161.653 316.204,161.156 315.655 C 160.752 315.209,160.722 315.005,161.030 314.815 C 161.275 314.663,161.350 314.703,161.220 314.914 C 161.101 315.106,161.211 315.343,161.464 315.440 C 161.789 315.565,161.886 315.404,161.792 314.892 C 161.719 314.493,161.748 314.354,161.857 314.583 C 161.966 314.813,162.277 315.000,162.547 315.000 C 162.818 315.000,162.940 315.161,162.818 315.358 C 162.688 315.569,162.864 315.549,163.248 315.309 C 164.039 314.816,164.105 313.005,163.333 312.996 C 162.911 312.991,162.906 312.944,163.304 312.692 C 164.003 312.250,164.620 313.048,164.462 314.191 C 164.329 315.160,164.331 315.159,164.753 314.072 C 165.099 313.179,165.257 313.056,165.609 313.405 C 165.960 313.754,165.999 313.726,165.817 313.250 C 165.695 312.929,165.424 312.661,165.214 312.654 C 165.005 312.646,165.315 312.431,165.903 312.175 C 166.581 311.881,167.148 311.290,167.452 310.562 C 167.716 309.931,168.100 309.311,168.305 309.184 C 168.510 309.058,168.591 308.814,168.486 308.644 C 168.380 308.473,168.443 308.333,168.625 308.333 C 168.806 308.333,169.055 308.017,169.178 307.631 C 169.301 307.245,169.612 306.682,169.870 306.381 C 170.128 306.080,170.300 305.755,170.253 305.659 C 170.205 305.563,170.504 305.122,170.917 304.679 C 171.329 304.237,171.667 303.678,171.667 303.437 C 171.667 303.197,171.817 303.000,172.000 303.000 C 172.183 303.000,172.333 302.840,172.333 302.644 C 172.333 302.449,172.671 301.811,173.084 301.228 C 173.497 300.644,174.009 299.867,174.222 299.500 C 174.700 298.677,178.908 291.672,179.303 291.043 C 179.538 290.668,180.089 290.756,182.378 291.535 C 185.452 292.581,185.303 292.550,188.260 292.757 C 189.411 292.838,190.434 292.773,190.533 292.613 C 190.632 292.453,190.875 292.423,191.074 292.545 C 191.272 292.668,191.637 292.492,191.884 292.154 C 192.286 291.604,192.333 291.599,192.333 292.103 C 192.333 292.778,192.943 292.815,193.768 292.190 C 194.161 291.891,194.232 291.688,193.973 291.602 C 193.689 291.507,193.715 291.333,194.065 290.982 C 194.334 290.714,194.493 290.270,194.418 289.997 C 194.323 289.647,194.367 289.618,194.567 289.899 C 194.908 290.378,195.852 289.902,195.545 289.406 C 195.431 289.221,195.569 288.981,195.853 288.872 C 196.148 288.759,196.281 288.815,196.164 289.004 C 195.829 289.547,196.550 289.376,197.029 288.799 C 197.273 288.505,197.833 288.127,198.273 287.960 C 198.853 287.739,198.980 287.543,198.736 287.244 C 198.502 286.958,198.561 286.685,198.930 286.344 C 199.400 285.910,199.435 285.920,199.241 286.428 C 199.120 286.742,199.175 287.000,199.363 287.000 C 199.552 287.000,199.614 287.148,199.502 287.330 C 199.386 287.518,199.519 287.574,199.816 287.461 C 200.101 287.351,200.333 287.053,200.333 286.798 C 200.333 286.542,200.508 286.333,200.722 286.333 C 200.936 286.333,201.013 286.236,200.894 286.116 C 200.775 285.997,200.937 285.686,201.255 285.425 C 201.573 285.164,201.623 285.060,201.365 285.193 C 201.044 285.360,200.977 285.306,201.153 285.022 C 201.333 284.730,201.513 284.713,201.763 284.963 C 202.013 285.213,202.265 285.197,202.621 284.909 C 203.040 284.569,203.089 284.596,202.910 285.073 C 202.792 285.388,202.807 285.714,202.944 285.799 C 203.080 285.883,203.222 285.594,203.258 285.156 C 203.294 284.719,203.095 284.233,202.816 284.077 C 202.382 283.834,202.413 283.699,203.036 283.146 C 203.764 282.500,203.764 282.500,203.367 283.255 C 203.039 283.881,203.062 284.045,203.504 284.214 C 204.120 284.451,205.519 283.154,204.997 282.831 C 204.815 282.719,204.667 282.811,204.667 283.036 C 204.667 283.261,204.588 283.366,204.492 283.270 C 204.022 282.799,204.752 281.989,205.268 282.408 C 205.707 282.764,205.760 282.748,205.594 282.306 C 205.477 281.992,205.574 281.778,205.833 281.778 C 206.077 281.778,206.199 282.011,206.110 282.306 C 205.991 282.696,206.048 282.680,206.329 282.243 C 206.537 281.918,206.872 281.754,207.072 281.878 C 207.307 282.023,207.340 281.946,207.163 281.662 C 206.961 281.334,207.046 281.280,207.492 281.451 C 208.001 281.646,208.029 281.603,207.673 281.174 C 207.219 280.627,206.502 280.463,206.821 280.980 C 206.927 281.152,206.711 281.270,206.341 281.242 C 205.515 281.180,205.443 280.686,206.250 280.616 C 208.086 280.456,209.199 279.997,208.627 279.635 C 208.342 279.455,208.314 279.342,208.554 279.338 C 209.088 279.331,208.893 278.320,208.293 277.984 C 207.777 277.695,203.554 277.764,196.803 278.169 C 193.163 278.388,192.625 278.346,191.244 277.735 L 189.715 277.059 190.991 274.518 C 197.619 261.325,191.093 246.245,179.654 248.324 M209.941 279.446 C 209.602 279.704,209.485 280.040,209.644 280.297 C 209.833 280.603,209.961 280.517,210.098 279.995 C 210.204 279.591,210.447 279.364,210.644 279.486 C 210.840 279.607,211.000 279.547,211.000 279.353 C 211.000 278.889,210.631 278.922,209.941 279.446 M112.031 286.796 C 111.759 287.124,111.745 287.342,111.986 287.491 C 112.180 287.611,112.431 287.468,112.544 287.173 C 112.825 286.440,112.516 286.212,112.031 286.796 M194.654 290.848 C 194.274 291.307,194.341 291.354,195.193 291.231 C 195.729 291.154,196.392 291.258,196.667 291.462 C 197.103 291.786,197.107 291.758,196.702 291.242 C 196.447 290.917,196.161 290.728,196.067 290.822 C 195.972 290.917,195.713 290.844,195.492 290.660 C 195.212 290.428,194.955 290.486,194.654 290.848 M84.414 307.995 C 84.186 308.360,84.005 308.847,84.010 309.079 C 84.016 309.319,84.166 309.249,84.360 308.917 C 84.547 308.596,84.913 308.333,85.173 308.333 C 85.456 308.333,85.569 308.133,85.454 307.833 C 85.195 307.159,84.908 307.204,84.414 307.995 M163.023 313.805 C 162.712 314.181,162.754 314.302,163.232 314.397 C 163.580 314.465,163.686 314.609,163.484 314.736 C 162.822 315.154,162.152 314.453,162.646 313.859 C 162.885 313.570,163.157 313.333,163.248 313.333 C 163.340 313.333,163.239 313.546,163.023 313.805 M160.667 316.654 C 160.667 316.819,160.329 317.019,159.917 317.098 C 159.213 317.234,159.219 317.245,160.000 317.283 C 161.117 317.337,161.934 316.840,161.195 316.557 C 160.904 316.445,160.667 316.489,160.667 316.654 M65.478 322.250 C 65.552 322.752,66.000 322.967,66.000 322.500 C 66.000 322.408,66.000 322.183,66.000 322.000 C 66.000 321.817,65.863 321.667,65.696 321.667 C 65.529 321.667,65.431 321.929,65.478 322.250 M148.218 325.944 C 147.914 326.279,147.778 326.687,147.916 326.849 C 148.054 327.012,147.904 326.944,147.583 326.698 C 147.084 326.316,147.000 326.330,147.000 326.793 C 147.000 327.691,147.918 327.400,148.450 326.333 C 149.028 325.175,148.982 325.099,148.218 325.944 M56.667 328.100 C 56.667 328.565,57.462 330.000,57.720 330.000 C 58.188 330.000,58.036 329.477,57.333 328.667 C 56.967 328.244,56.667 327.989,56.667 328.100 M53.890 330.555 C 53.553 330.892,53.622 331.667,53.990 331.667 C 54.167 331.667,54.226 331.442,54.121 331.167 C 54.015 330.892,54.025 330.667,54.142 330.667 C 54.259 330.667,54.475 330.992,54.623 331.390 C 54.773 331.796,54.984 331.962,55.104 331.768 C 55.355 331.363,54.218 330.227,53.890 330.555 M142.000 330.988 C 142.000 331.165,142.311 331.477,142.692 331.680 C 143.325 332.019,143.352 331.992,143.014 331.359 C 142.633 330.647,142.000 330.416,142.000 330.988 " stroke="none" fill="#2490ac" fill-rule="evenodd"></path></g></svg>