<?xml version="1.0" standalone="no"?>
<!DOCTYPE svg PUBLIC "-//W3C//DTD SVG 20010904//EN"
 "http://www.w3.org/TR/2001/REC-SVG-20010904/DTD/svg10.dtd">
<svg version="1.0" xmlns="http://www.w3.org/2000/svg"
 width="473.000000pt" height="473.000000pt" viewBox="0 0 473.000000 473.000000"
 preserveAspectRatio="xMidYMid meet">
<metadata>
Created by potrace 1.15, written by Peter Selinger 2001-2017
</metadata>
<g transform="translate(0.000000,473.000000) scale(0.100000,-0.100000)"
fill="#000000" stroke="none">
<path d="M0 2365 l0 -2365 2365 0 2365 0 0 2365 0 2365 -2365 0 -2365 0 0
-2365z m2451 1587 c99 -56 269 -151 754 -423 121 -67 265 -148 320 -179 l100
-57 8 -658 c4 -361 6 -660 3 -663 -5 -4 -276 147 -550 307 -44 25 -226 129
-405 231 l-326 186 -3 202 c-3 220 -3 218 53 184 115 -71 857 -492 865 -492 6
0 10 84 10 245 l0 245 -42 26 c-144 85 -880 494 -890 494 -5 0 -147 -80 -316
-177 -169 -97 -356 -205 -417 -239 -122 -69 -155 -93 -140 -100 6 -2 114 -64
240 -137 127 -73 608 -351 1070 -617 462 -266 843 -489 847 -495 4 -5 8 -94 8
-197 l0 -188 -37 -24 c-21 -14 -306 -180 -633 -371 -550 -321 -596 -346 -620
-335 -23 11 -80 43 -420 240 -63 37 -270 156 -460 265 -190 109 -351 203 -358
210 -9 8 -12 150 -10 668 l3 657 625 -358 625 -358 3 -202 c1 -128 -1 -202 -7
-202 -6 0 -52 24 -103 54 -507 291 -780 446 -789 446 -14 0 -7 -486 7 -500 5
-5 92 -57 194 -116 102 -59 266 -154 365 -212 99 -57 215 -124 258 -149 43
-25 86 -43 96 -40 9 2 184 100 387 217 488 281 506 292 497 300 -7 6 -754 437
-1476 852 -103 59 -263 151 -355 205 -92 53 -203 117 -247 143 l-80 46 -3 200
-2 200 557 324 c307 178 587 341 622 362 36 21 65 38 66 38 1 0 48 -26 106
-58z"/>
</g>
</svg>
